<?xml version="1.0" encoding="UTF-8"?>
<svg version="1.1" xmlns="http://www.w3.org/2000/svg" width="1254" height="1254">
<path d="M0 0 C413.82 0 827.64 0 1254 0 C1254 413.82 1254 827.64 1254 1254 C840.18 1254 426.36 1254 0 1254 C0 840.18 0 426.36 0 0 Z " fill="#FDFDFD" transform="translate(0,0)"/>
<path d="M0 0 C0.22880454 49.05484146 0.40505369 98.10962908 0.51065329 147.16489903 C0.52316061 152.95409046 0.53610381 158.74328084 0.54931641 164.5324707 C0.55325106 166.2612824 0.55325106 166.2612824 0.55726521 168.02501958 C0.60079846 186.6957823 0.67965504 205.36623764 0.77152796 224.03681792 C0.86498791 243.18941272 0.92057602 262.34184636 0.94088495 281.49465984 C0.95461791 293.31662689 0.99801624 305.13772523 1.07916467 316.95942491 C1.13195649 325.06205673 1.14801667 333.16423838 1.13501377 341.26702977 C1.12859751 345.94483362 1.13854529 350.62111791 1.19205475 355.29865265 C1.24068728 359.58108927 1.24320673 363.86098376 1.20898895 368.14353692 C1.20475987 369.69282753 1.21748322 371.2422761 1.24883182 372.7912553 C1.46948106 384.36659848 1.46948106 384.36659848 -2.18800378 388.43207538 C-4.72314295 390.23561853 -7.20192607 391.65057011 -10 393 C-11.1139917 393.6997998 -12.2279834 394.39959961 -13.37573242 395.12060547 C-14.35904541 395.69697754 -15.3423584 396.27334961 -16.35546875 396.8671875 C-17.46422363 397.52025879 -18.57297852 398.17333008 -19.71533203 398.84619141 C-20.87266704 399.52255389 -22.03005746 400.19882155 -23.1875 400.875 C-25.00797773 401.94427256 -26.82769746 403.0148274 -28.6473999 404.0854187 C-29.83415725 404.7834507 -31.02120525 405.48098882 -32.20855713 406.17800903 C-36.37109904 408.62288855 -40.50277352 411.11294446 -44.625 413.625 C-65.27508975 426.06682039 -86.6471988 437.14108533 -108.13153076 448.04949951 C-110.8736021 449.44440615 -113.61010352 450.85015713 -116.34765625 452.25390625 C-172.05090011 480.65191195 -231.90442956 505.17135533 -292.3125 521.4296875 C-298.66597427 523.15005945 -304.92469028 525.13914488 -311.16723633 527.22387695 C-314.65808224 528.3683327 -317.28447724 529 -321 529 C-321.20589885 479.67332427 -321.36453553 430.34669187 -321.45958797 381.0196711 C-321.47084463 375.19914852 -321.4824935 369.37862679 -321.49438477 363.55810547 C-321.49674556 362.3993208 -321.49910635 361.24053613 -321.50153869 360.04663678 C-321.54072458 341.27176589 -321.61169885 322.49714245 -321.69437516 303.72241847 C-321.77847238 284.46473361 -321.8285149 265.20717854 -321.84679645 245.94931757 C-321.85915952 234.06139611 -321.89823707 222.17417399 -321.9712482 210.28646775 C-322.01874008 202.1399435 -322.03321964 193.99378197 -322.0215124 185.84712927 C-322.01573467 181.14323701 -322.024728 176.44056856 -322.07284927 171.7368927 C-322.11657167 167.43184312 -322.11891431 163.12884269 -322.08809005 158.82369979 C-322.08427947 157.26501574 -322.0957678 155.7062051 -322.12394864 154.14777116 C-322.32264051 142.48327222 -322.32264051 142.48327222 -319.01918972 138.77862477 C-316.73033427 137.22681107 -314.53927574 136.08012149 -312 135 C-311.10635742 134.44425293 -310.21271484 133.88850586 -309.29199219 133.31591797 C-308.55110352 132.87908691 -307.81021484 132.44225586 -307.046875 131.9921875 C-305.76538574 131.234823 -305.76538574 131.234823 -304.45800781 130.4621582 C-303.56436523 129.938396 -302.67072266 129.41463379 -301.75 128.875 C-300.78674805 128.30934326 -299.82349609 127.74368652 -298.83105469 127.16088867 C-295.88947979 125.43695654 -292.944849 123.71833146 -290 122 C-288.75476563 121.26885986 -288.75476563 121.26885986 -287.484375 120.52294922 C-231.47550913 87.679515 -171.80650304 60.85171006 -111.10546875 37.953125 C-108.16317708 36.84163976 -105.27992021 35.68905645 -102.390625 34.44140625 C-98.17836909 32.6507122 -93.89075463 31.17044427 -89.5625 29.6875 C-83.21983226 27.49245435 -76.90167779 25.25245881 -70.625 22.875 C-65.69792274 21.01230948 -60.76607649 19.16637055 -55.8125 17.375 C-54.80832031 17.01148438 -53.80414062 16.64796875 -52.76953125 16.2734375 C-49.57345085 15.19372537 -46.37193171 14.19100684 -43.14453125 13.2109375 C-37.93963244 11.62174065 -32.77296517 9.9431804 -27.6171875 8.203125 C-26.90267929 7.96232208 -26.18817108 7.72151917 -25.45201111 7.47341919 C-22.50407174 6.47866645 -19.55682873 5.48193354 -16.61132812 4.47998047 C-14.42711119 3.73785819 -12.24107145 3.00133409 -10.0546875 2.265625 C-9.38911835 2.03756165 -8.72354919 1.80949829 -8.03781128 1.57452393 C-5.2190682 0.62969538 -2.99707294 0 0 0 Z " fill="#FDFDFD" transform="translate(780,324)"/>
<path d="M0 0 C83.676516 -1.17210837 83.676516 -1.17210837 111.20703125 24.01953125 C119.62479161 32.68716947 122.44958937 41.55634381 122.5 53.4375 C122.01408648 80.07163497 108.32571121 102.77483548 92 123 C91.29359375 123.89976562 90.5871875 124.79953125 89.859375 125.7265625 C78.01985648 140.59173575 64.48391512 154.70609266 50 167 C48.94968829 167.91310574 47.90028918 168.82726175 46.8515625 169.7421875 C39.66243552 175.99338254 32.33829413 181.98203234 24.72021484 187.70507812 C22.91832656 189.06148111 21.12493299 190.42862023 19.33203125 191.796875 C-17.42223907 219.73852675 -56.9899713 243.86842562 -97.62060547 265.71630859 C-99.81658879 266.90104903 -102.00544303 268.09767889 -104.19140625 269.30078125 C-104.80346924 269.63601807 -105.41553223 269.97125488 -106.04614258 270.31665039 C-107.60970563 271.17314868 -109.17209865 272.03178198 -110.734375 272.890625 C-113 274 -113 274 -115 274 C-114.99723462 274.62008218 -114.99446924 275.24016436 -114.99162006 275.8790369 C-114.92510275 291.03081785 -114.87559502 306.18255337 -114.84456348 321.33444309 C-114.82915449 328.66206194 -114.80818055 335.98958277 -114.77368164 343.31713867 C-114.74359498 349.71063288 -114.72438175 356.10405604 -114.71773452 362.49761909 C-114.71385453 365.8768192 -114.70486399 369.25581622 -114.68280983 372.63495064 C-114.5298149 399.00411003 -117.0833164 420.57725009 -135.75390625 440.80078125 C-143.72604401 448.60654396 -152.31661719 452.99317269 -163 456 C-163.85339889 456.2478464 -164.70679778 456.4956928 -165.58605725 456.7510497 C-172.78578818 458.71228019 -179.35369863 459.42770024 -186.79563904 459.3742218 C-188.4817255 459.38018341 -188.4817255 459.38018341 -190.20187432 459.38626546 C-193.93476391 459.39582101 -197.66726807 459.38411098 -201.40014648 459.37231445 C-204.09015917 459.37474465 -206.7801471 459.37835049 -209.47015381 459.38337708 C-215.99812161 459.39282658 -222.52597823 459.38629894 -229.05393773 459.37411413 C-236.66884556 459.36043465 -244.28372746 459.36213726 -251.89864445 459.36424746 C-265.49373163 459.3674318 -279.08876629 459.35580213 -292.68383789 459.33618164 C-305.85117187 459.31718368 -319.01844431 459.31009383 -332.18579102 459.31567383 C-346.55081406 459.32174344 -360.9158101 459.32153265 -375.28083092 459.310188 C-376.81515602 459.30898081 -378.34948112 459.30777482 -379.88380623 459.30657005 C-381.01594805 459.30566475 -381.01594805 459.30566475 -382.17096142 459.30474115 C-387.46844861 459.30087552 -392.7659257 459.30125036 -398.06341362 459.3031559 C-404.52740967 459.30528684 -410.99135206 459.29998621 -417.45533305 459.28554235 C-420.74811336 459.27834133 -424.04080084 459.27526758 -427.33358955 459.27878571 C-430.91493712 459.28203049 -434.49605351 459.27286797 -438.07737732 459.26069641 C-439.61331493 459.2663654 -439.61331493 459.2663654 -441.18028158 459.27214891 C-460.40563021 459.15731482 -477.48555187 454.0354187 -491.53515625 440.5703125 C-499.69256573 431.36349356 -508 416.57572256 -508 404 C-509.72101929 404.13631836 -509.72101929 404.13631836 -511.47680664 404.27539062 C-534.06640037 406.03440971 -556.58602829 407.308825 -579.25 407.3125 C-580.21575958 407.31572266 -581.18151917 407.31894531 -582.17654419 407.32226562 C-598.14179581 407.35498724 -613.79664743 406.2872139 -629.5 403.25 C-630.3652832 403.08298584 -631.23056641 402.91597168 -632.12207031 402.74389648 C-644.35414975 400.25304497 -656.37770336 396.6881127 -667 390 C-662.90610381 388.63536794 -659.26920241 389.42265513 -655.06640625 389.91796875 C-641.69807395 391.33018284 -628.36794016 391.35338647 -614.9375 391.3125 C-613.02439026 391.30926727 -613.02439026 391.30926727 -611.07263184 391.30596924 C-579.04293399 391.21937543 -548.40295266 388.29143224 -516.85717773 382.93699646 C-512.24219572 382.16687032 -507.64976884 381.61478089 -502.99072266 381.2109375 C-500.24826196 380.92034564 -497.6565328 380.29078243 -495 379.5625 C-490.63264407 378.37760656 -486.26181377 377.44011078 -481.82421875 376.5690918 C-476.53183184 375.50265387 -471.26805897 374.30479061 -466 373.125 C-452.07981138 370.00951125 -452.07981138 370.00951125 -446.8359375 368.89453125 C-439.00295393 367.22140997 -431.30428153 365.33115946 -423.64035034 362.99583435 C-418.61092692 361.46673735 -413.56213385 360.03257723 -408.4921875 358.64453125 C-332.41748842 337.63585878 -258.802815 308.74835708 -188 274 C-186.93378418 273.48050781 -185.86756836 272.96101563 -184.76904297 272.42578125 C-170.72733419 265.57981576 -157.05814102 258.24071425 -143.52294922 250.44287109 C-141.30856661 249.17646881 -139.0843261 247.93348564 -136.84765625 246.70703125 C-120.40084451 237.67929837 -104.48336588 227.58965956 -89 217 C-87.57839088 216.0412723 -86.15648949 215.08297791 -84.734375 214.125 C-64.76016912 200.62131152 -45.42663407 186.3031813 -27.1015625 170.62890625 C-24.175514 168.1327295 -21.18643248 165.72073366 -18.1875 163.3125 C-14.17286724 160.04842902 -10.49911063 156.61324157 -6.8984375 152.90234375 C-4.98227957 150.98224311 -2.99364711 149.20610163 -0.9375 147.4375 C4.88967334 142.40701052 10.12314103 136.97292341 15.13671875 131.13671875 C16.4067426 129.68031823 17.70240048 128.2459724 19.01953125 126.83203125 C38.17536894 106.2265626 61.8230944 75.72039032 61.140625 46.08984375 C60.47836695 36.24795322 56.62674338 28.36275502 49.3984375 21.546875 C37.0318563 11.74694273 24.02033254 7.36599583 8.86035156 3.95239258 C7.85713867 3.72447021 6.85392578 3.49654785 5.8203125 3.26171875 C4.46317139 2.96720825 4.46317139 2.96720825 3.07861328 2.66674805 C2.3926709 2.44672119 1.70672852 2.22669434 1 2 C0.67 1.34 0.34 0.68 0 0 Z " fill="#F65341" transform="translate(932,501)"/>
<path d="M0 0 C1.12346122 -0.00453111 2.24692244 -0.00906223 3.40442795 -0.01373065 C7.15336354 -0.02634871 10.90215337 -0.02475591 14.65110779 -0.02310181 C17.3456577 -0.02908876 20.04019638 -0.03583863 22.73474121 -0.04345703 C29.28615089 -0.0600274 35.83752457 -0.06556483 42.38895345 -0.06668179 C47.71946106 -0.06763438 53.04995687 -0.07175519 58.38046074 -0.07808304 C73.51940063 -0.09568654 88.65831224 -0.10492359 103.79726244 -0.10342209 C104.61238101 -0.10334218 105.42749959 -0.10326227 106.26731873 -0.10317993 C107.49150352 -0.10305729 107.49150352 -0.10305729 108.74041932 -0.10293217 C121.95313378 -0.10212007 135.16573402 -0.12124091 148.37841547 -0.14945666 C161.97057492 -0.17825182 175.5626788 -0.19199324 189.1548695 -0.19026911 C196.77552201 -0.18960738 204.39605487 -0.19500385 212.01667976 -0.21662521 C218.50777526 -0.23492481 224.99869688 -0.23911312 231.48980714 -0.22560637 C234.79525881 -0.21911973 238.10010854 -0.22101635 241.40557098 -0.23631287 C264.47641425 -0.3361073 285.59490592 1.5454013 303.07469177 18.45883179 C307.33471217 23.29762273 310.52101775 28.59484913 313.54734802 34.26742554 C313.9675824 35.04988647 314.38781677 35.83234741 314.82078552 36.63851929 C318.15894747 43.47798643 320.54734802 51.64017413 320.54734802 59.26742554 C321.5450824 59.1346521 322.54281677 59.00187866 323.57078552 58.86508179 C337.20210066 57.14695796 350.81703367 56.52894767 364.54734802 56.26742554 C365.67118896 56.24585388 365.67118896 56.24585388 366.81773376 56.22384644 C438.06219322 54.93140517 438.06219322 54.93140517 464.54734802 71.26742554 C464.54734802 71.59742554 464.54734802 71.92742554 464.54734802 72.26742554 C463.73604431 72.19741333 462.9247406 72.12740112 462.08885193 72.05526733 C449.03932831 71.07875475 435.99477678 71.08131902 422.91404724 71.0821228 C418.95186016 71.07994178 414.98995467 71.06174436 411.02781677 71.04281616 C390.43855464 70.99712356 370.47694481 72.37827669 350.18894958 75.82894897 C347.20503071 76.32424641 344.21688497 76.78587317 341.22703552 77.24398804 C340.13044617 77.41366089 339.03385681 77.58333374 337.90403748 77.75814819 C335.77810632 78.08681435 333.65167166 78.41224764 331.52464294 78.73373413 C325.36116266 79.70029925 319.36995235 80.97870121 313.34031677 82.58383179 C310.40147622 83.30312842 307.47469249 83.80921182 304.48484802 84.26742554 C299.67526005 85.01794642 295.11872588 86.16946394 290.44676208 87.51815796 C287.76329004 88.21162173 285.17627899 88.65527083 282.43406677 89.03695679 C273.4127784 90.49923279 264.66389339 93.04511807 255.85984802 95.45492554 C254.00300178 95.95931623 252.14606731 96.46338221 250.28904724 96.96713257 C245.8085521 98.1843701 241.33015634 99.40912959 236.85246277 100.6366272 C233.84207801 101.46042381 230.82937621 102.27561048 227.81687927 103.09164429 C214.36561318 106.76772428 201.02006824 110.79744276 187.67234802 114.82992554 C186.76559326 115.10383118 185.8588385 115.37773682 184.92460632 115.65994263 C166.80274779 121.14133939 148.75539397 126.84458314 130.74534607 132.68222046 C128.32251551 133.4670182 125.89880392 134.2490562 123.4750824 135.03109741 C121.90146046 135.54069562 120.32789075 136.05045512 118.75437927 136.56039429 C118.04594376 136.78857346 117.33750824 137.01675262 116.60760498 137.25184631 C111.86732116 138.79267678 107.20377982 140.49067553 102.54734802 142.26742554 C101.32088562 142.72689575 100.09442322 143.18636597 98.83079529 143.65975952 C94.73568195 145.19396822 90.64139638 146.73037746 86.54734802 148.26742554 C85.88402466 148.51631531 85.22070129 148.76520508 84.53727722 149.02163696 C21.07183003 172.84850405 -42.56204067 199.72496413 -100.78126526 234.67074585 C-103.28494032 236.16718479 -105.80104155 237.63929825 -108.32374573 239.10336304 C-118.72784319 245.18122607 -128.80379014 251.71264185 -138.82765198 258.39242554 C-139.45214233 258.80808777 -140.07663269 259.22375 -140.720047 259.65200806 C-157.93066048 271.12782984 -174.63946674 283.15869733 -190.34718323 296.63461304 C-193.09528416 298.98481802 -195.92242461 301.21983646 -198.76515198 303.45492554 C-205.93029158 309.26934663 -212.28704774 315.93759361 -218.73756409 322.52084351 C-220.18463316 323.99448509 -221.64350415 325.45652388 -223.10499573 326.91586304 C-238.27988534 342.11600205 -255.80302132 362.95992001 -257.45265198 385.26742554 C-257.52999573 386.18910522 -257.60733948 387.11078491 -257.68702698 388.06039429 C-258.16235519 398.26674733 -254.60321151 406.5338305 -248.21437073 414.43539429 C-234.05844099 429.1563057 -211.56265316 433.09144215 -192.45265198 437.26742554 C-192.45265198 437.59742554 -192.45265198 437.92742554 -192.45265198 438.26742554 C-280.6390125 439.75522346 -280.6390125 439.75522346 -308.64015198 416.26742554 C-316.72077435 408.35611145 -320.44693024 399.36769295 -320.80690002 388.11068726 C-321.08482089 358.40258174 -300.582633 332.5201913 -280.67715454 312.21295166 C-279.23100871 310.74822863 -277.78032784 309.28817075 -276.32765198 307.82992554 C-274.96893982 306.46287476 -274.96893982 306.46287476 -273.58277893 305.06820679 C-267.50577014 299.0554788 -261.1264123 293.60251442 -254.45265198 288.26742554 C-253.42536145 287.40372852 -252.40198832 286.53529927 -251.38624573 285.65805054 C-242.80735442 278.30087928 -233.68149198 271.7770176 -224.45265198 265.26742554 C-223.79813049 264.80223511 -223.14360901 264.33704468 -222.46925354 263.85775757 C-196.11941088 245.16425851 -167.90277417 229.48378009 -139.45265198 214.26742554 C-138.63087463 213.82688843 -137.80909729 213.38635132 -136.9624176 212.9324646 C-127.21721271 207.71792514 -117.38657848 202.67608507 -107.51515198 197.70492554 C-106.51628967 197.19896851 -105.51742737 196.69301147 -104.48829651 196.17172241 C-97.73792318 192.7927694 -90.90576956 189.64169653 -84.01686096 186.55673218 C-83.09441338 186.14268379 -82.17196579 185.72863541 -81.22156525 185.3020401 C-78.96565903 184.28961003 -76.70934782 183.27809401 -74.45265198 182.26742554 C-74.45118542 181.67495561 -74.44971886 181.08248568 -74.44820786 180.47206211 C-74.41096894 165.97869769 -74.35173097 151.48553473 -74.26874924 136.99236393 C-74.22913473 129.98321775 -74.19665384 122.97418098 -74.18165588 115.9649353 C-74.16713639 109.18906071 -74.13182578 102.41353812 -74.08434296 95.63781548 C-74.0696101 93.06455896 -74.06161567 90.49125395 -74.06076813 87.9179554 C-74.04959239 70.98619159 -74.01755887 54.03633198 -65.64015198 38.76742554 C-65.11977356 37.78020508 -65.11977356 37.78020508 -64.58888245 36.77304077 C-54.86949155 18.80037431 -39.64670503 8.4706558 -20.45265198 2.26742554 C-13.59638018 0.33442736 -7.09706076 -0.02120142 0 0 Z " fill="#F7533C" transform="translate(495.45265197753906,213.73257446289063)"/>
<path d="M0 0 C-2.65013735 2.65013735 -4.7142714 2.75654077 -8.375 3.5 C-9.6434375 3.75910156 -10.911875 4.01820313 -12.21875 4.28515625 C-15.43274191 4.89276009 -18.64327745 5.43587274 -21.875 5.9375 C-26.77736476 6.72161479 -31.56210167 7.79705094 -36.375 9 C-37.37442627 9.24931274 -37.37442627 9.24931274 -38.39404297 9.50366211 C-41.32144793 10.25189121 -44.14841681 11.05609454 -46.9765625 12.125 C-50 13 -50 13 -58 13 C-57.67 134.44 -57.34 255.88 -57 381 C-48.35102573 373.97313975 -48.35102573 373.97313975 -40.0625 366.625 C-39.05105697 365.6845992 -38.03933007 364.74450364 -37.02734375 363.8046875 C-36.5257373 363.33772461 -36.02413086 362.87076172 -35.50732422 362.38964844 C-34.04144945 361.03821352 -32.55417019 359.71011188 -31.06640625 358.3828125 C-8.46362495 338.15137213 19.87700009 308.70179497 22.3828125 276.7421875 C22.96087795 265.58587749 21.40819206 257.19749576 13.83203125 248.515625 C4.30555113 239.25333764 -7.31460356 234.34263311 -20 231 C-20 230.67 -20 230.34 -20 230 C-15.89589532 229.94111758 -11.79190173 229.90611079 -7.6875 229.875 C-5.96563477 229.84986328 -5.96563477 229.84986328 -4.20898438 229.82421875 C3.12226078 229.78268195 9.83669788 230.50548234 17 232 C19.24852719 232.32292678 21.498304 232.63746437 23.75 232.9375 C28.69566329 233.68081271 32.52890821 234.81007749 37 237 C38.38058594 237.44279297 38.38058594 237.44279297 39.7890625 237.89453125 C50.53367884 241.59371182 60.78138112 247.56276224 66 258 C71.10246367 268.54763012 68.25116382 282.31427029 64.609375 292.93359375 C62.16179094 299.42214522 58.76172553 305.19697513 55 311 C53.98099609 312.58167969 53.98099609 312.58167969 52.94140625 314.1953125 C38.99618121 335.02359356 21.41457488 354.7520356 2.32421875 371.015625 C0.4543397 372.61209316 -1.39149853 374.22778363 -3.23046875 375.859375 C-11.86780912 383.48898683 -20.80994624 390.58516094 -30.0234375 397.50390625 C-31.84271224 398.88094622 -33.6440083 400.27712507 -35.4375 401.6875 C-42.67993752 407.37916252 -50.1383041 412.58225639 -57.85595703 417.60351562 C-60.19903481 419.12963779 -62.53509115 420.66619702 -64.87109375 422.203125 C-74.78170362 428.70657652 -84.76331133 435.02409237 -95 441 C-95.96244629 441.56509277 -96.92489258 442.13018555 -97.91650391 442.71240234 C-109.50736007 449.50982321 -121.06491673 456.26952074 -133.16796875 462.1171875 C-136.78038035 463.8672296 -140.31255068 465.75171914 -143.84887695 467.64990234 C-153.6292163 472.89459067 -163.59867004 477.52615668 -173.75146484 481.99902344 C-176.87796546 483.39084239 -179.96893472 484.84880168 -183.0625 486.3125 C-207.00510363 497.52437287 -231.3134662 507.55774281 -256 517 C-256.70833984 517.2711261 -257.41667969 517.5422522 -258.14648438 517.82159424 C-293.71479159 531.40262214 -330.1244788 542.67251993 -366.91143799 552.44464111 C-368.99750513 552.9993366 -371.08257377 553.55765947 -373.16748047 554.11669922 C-390.00319882 558.62197444 -406.87547899 562.73386619 -424 566 C-425.27665527 566.24492188 -426.55331055 566.48984375 -427.86865234 566.7421875 C-456.53931119 572.21695662 -485.70690003 577.39750553 -515 577 C-512.10735694 575.0715713 -510.98250836 574.66049865 -507.6953125 574.17578125 C-506.81544678 574.0375293 -505.93558105 573.89927734 -505.02905273 573.75683594 C-504.07071533 573.61020508 -503.11237793 573.46357422 -502.125 573.3125 C-491.15057721 571.54125816 -480.43522138 569.04187792 -469.67431641 566.28637695 C-468.50175293 565.99077881 -467.32918945 565.69518066 -466.12109375 565.390625 C-465.0839624 565.12282227 -464.04683105 564.85501953 -462.97827148 564.57910156 C-460 564 -460 564 -454 564 C-454.33 441.57 -454.66 319.14 -455 193 C-466.13075612 201.34144524 -466.13075612 201.34144524 -477 210 C-477.97710937 210.79019531 -478.95421875 211.58039063 -479.9609375 212.39453125 C-501.66573918 230.2609268 -526.00393414 252.66412838 -535 280 C-535.29777344 280.88300781 -535.59554687 281.76601563 -535.90234375 282.67578125 C-539.1245042 293.17378786 -539.22854251 301.24360267 -534.03564453 311.07592773 C-526.38383881 324.4842572 -510.27951442 330.95812627 -496 335 C-496 335.33 -496 335.66 -496 336 C-522.67756312 336.4558469 -555.75630258 335.76179796 -576.38671875 315.86328125 C-584.42805869 306.57582568 -585.92293051 298.4140807 -585.26074219 286.41015625 C-583.47878221 269.93870597 -571.63663241 253.95550631 -561 242 C-560.34523682 241.26281738 -560.34523682 241.26281738 -559.67724609 240.51074219 C-549.10966088 228.6795198 -538.12332626 216.91550078 -525.64453125 207.0859375 C-522.86729968 204.89532944 -520.18867313 202.61070193 -517.5 200.3125 C-494.18295527 180.9409603 -468.23134013 164.13533725 -442 149 C-440.76757568 148.28287842 -440.76757568 148.28287842 -439.51025391 147.55126953 C-433.37007606 143.98036098 -427.19704918 140.47119937 -421 137 C-420.13616699 136.51515137 -419.27233398 136.03030273 -418.38232422 135.53076172 C-386.81656507 117.90328185 -354.22605178 102.22424986 -321 88 C-320.30886108 87.7039386 -319.61772217 87.4078772 -318.90563965 87.10284424 C-309.30091618 82.9939215 -299.66226452 78.97163009 -290 75 C-288.86965332 74.53335938 -287.73930664 74.06671875 -286.57470703 73.5859375 C-274.86415504 68.76465452 -263.14148364 64.18028453 -251.07177734 60.33056641 C-247.07002201 59.05246732 -243.1541402 57.69011838 -239.265625 56.09765625 C-233.00275393 53.54811524 -226.60509983 51.43578265 -220.1875 49.3125 C-219.54126678 49.09790131 -218.89503357 48.88330261 -218.22921753 48.66220093 C-204.99674716 44.27063606 -191.69754242 40.10714577 -178.36425781 36.03173828 C-175.16421876 35.05036201 -171.96833792 34.05655256 -168.7734375 33.05859375 C-158.97247664 30.01186825 -149.1675903 27.18740181 -139.19165039 24.77026367 C-133.88155666 23.48356069 -128.62648686 22.06914252 -123.375 20.5625 C-115.86216715 18.43142332 -108.29242462 16.5850316 -100.6875 14.8125 C-99.62644043 14.56250244 -98.56538086 14.31250488 -97.47216797 14.05493164 C-90.84383679 12.53279044 -84.23334419 11.36324808 -77.49536133 10.4362793 C-75.06636164 10.25794849 -75.06636164 10.25794849 -74 9 C-72.62788632 8.71337746 -71.24406139 8.48241074 -69.85766602 8.27563477 C-68.97486465 8.14202042 -68.09206329 8.00840607 -67.18251038 7.8707428 C-66.21607101 7.72906174 -65.24963165 7.58738068 -64.25390625 7.44140625 C-63.25479721 7.29219223 -62.25568817 7.14297821 -61.2263031 6.98924255 C-59.09542262 6.67204469 -56.96423105 6.356931 -54.83276367 6.04370117 C-51.63440313 5.57308015 -48.43727516 5.09472841 -45.24023438 4.61523438 C-35.85082975 3.21728017 -26.45860089 1.86319639 -17.02734375 0.77734375 C-16.33886856 0.69561417 -15.65039337 0.61388458 -14.9410553 0.52967834 C-9.93329196 -0.0179599 -5.02923714 -0.0611112 0 0 Z M-106.11328125 27.2734375 C-106.82652054 27.51253845 -107.53975983 27.7516394 -108.27461243 27.99798584 C-110.62205567 28.78599677 -112.96729602 29.58035194 -115.3125 30.375 C-116.94762124 30.92601234 -118.58287662 31.47662677 -120.21826172 32.02685547 C-122.71767783 32.86782442 -125.21697897 33.70911708 -127.71569824 34.55215454 C-132.85076296 36.28339379 -137.99309277 37.99003017 -143.14453125 39.671875 C-156.3759337 44.00402498 -169.4619473 48.55166883 -182.40478516 53.68994141 C-186.89608152 55.46662921 -191.33698308 57.14997967 -195.984375 58.47265625 C-200.7126859 59.83950671 -205.16416441 61.65336758 -209.6875 63.58544922 C-213.31881956 65.13614685 -216.96958344 66.63626873 -220.625 68.12890625 C-278.70306381 91.91446457 -336.01490007 117.18833829 -390.0625 149.26074219 C-393.13977531 151.08275925 -396.22523088 152.89028662 -399.3125 154.6953125 C-401.3334605 155.87999142 -403.35429839 157.06487954 -405.375 158.25 C-406.31520996 158.79930176 -407.25541992 159.34860352 -408.22412109 159.91455078 C-409.08602051 160.42228027 -409.94791992 160.93000977 -410.8359375 161.453125 C-411.59438965 161.89817383 -412.3528418 162.34322266 -413.13427734 162.80175781 C-415.13532769 163.9934235 -415.13532769 163.9934235 -417 166 C-417.30247544 168.87080423 -417.30247544 168.87080423 -417.24609566 172.30563545 C-417.24840335 172.96303213 -417.25071103 173.62042881 -417.25308865 174.2977466 C-417.25842347 176.52209368 -417.24937603 178.74615686 -417.24050903 180.9704895 C-417.24138039 182.57263885 -417.24313008 184.17478792 -417.24568737 185.77693546 C-417.25017864 190.19626354 -417.2421329 194.61549544 -417.23213124 199.03481126 C-417.22352456 203.79419349 -417.22641492 208.55356994 -417.22793579 213.31295776 C-417.22898641 221.56447773 -417.22269137 229.81596615 -417.21146011 238.06747818 C-417.19523199 249.99789487 -417.18999987 261.92829626 -417.18748413 273.85872279 C-417.1831028 293.21327827 -417.16978183 312.56781694 -417.15087891 331.92236328 C-417.13253143 350.72770096 -417.11836939 369.53303408 -417.10986328 388.33837891 C-417.10933783 389.49680774 -417.10881239 390.65523658 -417.10827102 391.84876932 C-417.10566101 397.66004767 -417.10313358 403.47132605 -417.10064721 409.28260446 C-417.07990107 457.52174793 -417.04466363 505.76087315 -417 554 C-413.64885036 553.45395441 -410.38294672 552.91484789 -407.12866211 551.94018555 C-406.43030746 551.73294357 -405.73195282 551.5257016 -405.01243591 551.31217957 C-403.90606529 550.97782646 -403.90606529 550.97782646 -402.77734375 550.63671875 C-401.99541153 550.4034639 -401.21347931 550.17020905 -400.40785217 549.92988586 C-397.91670865 549.18580503 -395.42711432 548.43667943 -392.9375 547.6875 C-391.29241343 547.19564326 -389.64723191 546.70410401 -388.00195312 546.21289062 C-384.03521176 545.02716881 -380.07063769 543.83443235 -376.10748291 542.63677979 C-374.24704645 542.07464553 -372.38601908 541.51446773 -370.52490234 540.95458984 C-329.29038027 528.43179863 -289.08689806 512.72241408 -249.89031982 494.86016846 C-248.07317478 494.03329735 -246.25367496 493.21160706 -244.43408203 492.39013672 C-215.77346454 479.43676155 -187.35534301 465.53611857 -160 450 C-158.99146973 449.42862305 -157.98293945 448.85724609 -156.94384766 448.26855469 C-124.75925194 432.04615532 -124.75925194 432.04615532 -96 411 C-95.90211623 408.95147609 -95.87628782 406.89950816 -95.87695217 404.84864712 C-95.8752214 403.86934799 -95.8752214 403.86934799 -95.87345567 402.87026504 C-95.87078266 400.65538278 -95.87531674 398.44057141 -95.87974548 396.22569275 C-95.87930992 394.63265658 -95.87843529 393.03962048 -95.87715632 391.44658476 C-95.87490841 387.04782756 -95.87893665 382.64909447 -95.88393438 378.25034034 C-95.88823448 373.51479902 -95.88679277 368.77925916 -95.8860321 364.04371643 C-95.88550659 355.83202222 -95.88865626 347.62033594 -95.89426994 339.40864372 C-95.90238122 327.53577058 -95.90499978 315.66290128 -95.90625793 303.79002566 C-95.90844904 284.52920439 -95.91511071 265.26838734 -95.92456055 246.00756836 C-95.93373315 227.2923993 -95.94081472 208.57723139 -95.94506836 189.86206055 C-95.94533108 188.70934298 -95.94559381 187.55662541 -95.94586449 186.368977 C-95.94716949 180.58639614 -95.9484332 174.80381527 -95.94967639 169.02123439 C-95.96005083 121.01415334 -95.97767074 73.00707688 -96 25 C-99.67459066 25 -102.67925166 26.10260331 -106.11328125 27.2734375 Z " fill="#05B4EA" transform="translate(876,299)"/>
<path d="M0 0 C1.60556404 -0.00551503 1.60556404 -0.00551503 3.24356371 -0.01114148 C6.81843238 -0.02212579 10.39327193 -0.02601313 13.96815491 -0.02983093 C16.53598115 -0.03609929 19.1038065 -0.04274642 21.67163086 -0.04974365 C29.36435654 -0.0694345 37.0570834 -0.07956131 44.74982795 -0.08847144 C48.37730277 -0.09286332 52.00477615 -0.09822749 55.63224983 -0.10346031 C67.69629965 -0.12045928 79.76034859 -0.13495488 91.82440853 -0.14220905 C94.94947244 -0.14411874 98.07453634 -0.14603911 101.19960022 -0.147995 C102.36458462 -0.14872061 102.36458462 -0.14872061 103.55310405 -0.14946087 C116.14335432 -0.15776702 128.73350976 -0.18311971 141.3237186 -0.21557567 C154.26378922 -0.24866069 167.20381163 -0.2666588 180.14392477 -0.26985329 C187.40388069 -0.27201621 194.66369799 -0.28073367 201.92361259 -0.30631447 C208.75021247 -0.33031426 215.57655916 -0.33383823 222.40319252 -0.32355309 C224.90695398 -0.3230571 227.41072764 -0.3293958 229.9144516 -0.34310913 C233.33560102 -0.36079793 236.75585187 -0.35373583 240.17700195 -0.34057617 C241.16475788 -0.35154542 242.1525138 -0.36251466 243.17020172 -0.37381631 C250.93937022 -0.30179401 257.19590802 1.75425383 263.4644928 6.39717102 C268.11667109 11.1575395 270.99531756 17.01094467 271.24964905 23.72529602 C271.2322467 25.04787415 271.2322467 25.04787415 271.2144928 26.39717102 C271.20546936 27.28920227 271.19644592 28.18123352 271.18714905 29.10029602 C271.1697467 30.11349915 271.1697467 30.11349915 271.1519928 31.14717102 C270.34383118 31.3278009 269.53566956 31.50843079 268.70301819 31.6945343 C250.8160579 35.69807734 232.9551246 39.78297918 215.1519928 44.14717102 C214.12460999 44.39853821 213.09722717 44.6499054 212.03871155 44.90888977 C201.22060246 47.56289661 190.43423324 50.28633537 179.71864319 53.32978821 C175.20246072 54.60463563 170.67154547 55.76740355 166.10951233 56.8664093 C156.54816985 59.17458159 147.17246863 61.91088197 137.78651428 64.84907532 C129.19892144 67.53382737 120.58145887 70.09889065 111.94502258 72.62068176 C100.26900538 76.03099255 88.60780042 79.46657413 77.03529358 83.21601868 C74.0442279 84.18197333 71.05045218 85.13916229 68.05625916 86.09536743 C65.0015396 87.07173431 61.94799603 88.05174483 58.89466858 89.03245544 C57.37921689 89.51875381 55.86343796 90.00403383 54.3473053 90.48820496 C46.95200753 92.85197388 39.62837963 95.26297942 32.44960022 98.23506165 C29.15427188 99.54324852 25.79319796 100.60499194 22.41664124 101.68232727 C6.31160405 106.82258784 -9.32055963 113.10210647 -24.99632263 119.40327454 C-28.70307605 120.89242711 -32.41308721 122.3734461 -36.12242126 123.8561554 C-37.79957925 124.52752243 -39.47606437 125.20057403 -41.15171814 125.87568665 C-44.03384466 127.03573936 -46.8997363 128.16441405 -49.8480072 129.14717102 C-49.94103624 117.11567928 -50.0119385 105.08427432 -50.05525589 93.052495 C-50.076055 87.46453888 -50.10423141 81.87683038 -50.14976501 76.28901672 C-50.19349773 70.88788129 -50.21720191 65.48698277 -50.22751617 60.08568382 C-50.23485858 58.0337775 -50.24919545 55.98188288 -50.27092743 53.93007851 C-50.42939986 38.33581423 -49.80422206 23.66739012 -38.7230072 11.52217102 C-28.05715265 1.3150629 -14.01276984 -0.00260956 0 0 Z " fill="#FDFCFC" transform="translate(508.84800720214844,250.8528289794922)"/>
<path d="M0 0 C0.11632701 12.27495299 0.20493417 24.54977282 0.25906086 36.8251667 C0.28505123 42.52638474 0.32025498 48.22722307 0.37719727 53.92822266 C0.43189526 59.43960122 0.46149976 64.95061669 0.47438622 70.46224594 C0.48355866 72.55521223 0.50146868 74.64816074 0.52865028 76.74097061 C0.70461546 90.86273728 0.4597078 103.44025819 -8.6875 115.0625 C-12.87748617 119.31561214 -17.49402899 121.80721503 -23 124 C-24.72027908 124.76403531 -24.72027908 124.76403531 -26.47531128 125.54350567 C-31.65864344 127.4682984 -36.60670888 127.4140439 -42.08251953 127.3742218 C-43.17810244 127.37819621 -44.27368534 127.38217061 -45.40246773 127.38626546 C-49.06271585 127.39586708 -52.7225754 127.38408284 -56.3828125 127.37231445 C-59.01137435 127.37474311 -61.63993527 127.37846315 -64.26849365 127.38337708 C-70.6603098 127.39284772 -77.05201276 127.38628046 -83.44382048 127.37411413 C-90.89212178 127.36046702 -98.34039638 127.36213439 -105.78870702 127.36424746 C-119.08116641 127.36743482 -132.37357215 127.35578423 -145.66601562 127.33618164 C-158.55535516 127.31717859 -171.44463183 127.31009442 -184.33398438 127.31567383 C-198.37994046 127.32173594 -212.42586894 127.32154663 -226.47182274 127.310188 C-227.97045263 127.30898074 -229.46908251 127.30777476 -230.9677124 127.30657005 C-231.70500836 127.30596651 -232.44230431 127.30536298 -233.20194256 127.30474115 C-238.390023 127.30086692 -243.57809313 127.3012537 -248.76617432 127.3031559 C-255.75278245 127.30550348 -262.73930855 127.2969255 -269.72589874 127.2810955 C-272.28973304 127.27685419 -274.85357551 127.27600107 -277.4174118 127.27878571 C-280.91752307 127.28201042 -284.41739392 127.27291798 -287.91748047 127.26069641 C-288.93149492 127.26447573 -289.94550938 127.26825506 -290.99025154 127.27214891 C-300.39798894 127.21405982 -308.1400404 125.90559126 -315 119 C-318.10099258 114.51383783 -319.14795761 110.34814847 -320 105 C-318.35076538 104.65388672 -318.35076538 104.65388672 -316.66821289 104.30078125 C-287.32442461 98.13066918 -257.98000025 91.90469995 -229.14941406 83.60644531 C-226.79033904 82.94084532 -224.42404151 82.30769809 -222.0546875 81.6796875 C-187.85280095 72.59584849 -154.1822135 61.26701615 -121 49 C-119.80511963 48.55841553 -118.61023926 48.11683105 -117.37915039 47.66186523 C-106.92211948 43.77841473 -96.54406239 39.70567866 -86.1875 35.5625 C-85.32782623 35.21884399 -84.46815247 34.87518799 -83.58242798 34.52111816 C-62.85529846 26.22292957 -42.2991605 17.5276259 -21.92578125 8.39453125 C-21.28952316 8.10969879 -20.65326508 7.82486633 -19.99772644 7.53140259 C-17.02115784 6.1977156 -14.0483937 4.85651206 -11.08081055 3.50292969 C-9.54034058 2.80731934 -9.54034058 2.80731934 -7.96875 2.09765625 C-7.07607422 1.69039307 -6.18339844 1.28312988 -5.26367188 0.86352539 C-3 0 -3 0 0 0 Z " fill="#FDFCFC" transform="translate(780,795)"/>
<path d="M0 0 C1.32 0 2.64 0 4 0 C4 122.76 4 245.52 4 372 C3.67 372 3.34 372 3 372 C2.67 249.9 2.34 127.8 2 2 C1.01 2 0.02 2 -1 2 C-0.67 1.34 -0.34 0.68 0 0 Z " fill="#20B2E5" transform="translate(419,490)"/>
<path d="M0 0 C2.03009571 1.67632568 2.9157202 2.63199964 3.51171875 5.234375 C3.87432675 10.42369838 3.87432675 10.42369838 4 13 C4.061875 14.2375 4.12375 15.475 4.1875 16.75 C3.98953227 20.18144062 3.21005429 22.79691511 2 26 C1.65431777 27.33018521 1.32232222 28.6639621 1 30 C-0.51251094 36.00916507 -2.30610854 41.07124926 -5.81640625 46.2109375 C-7.78624732 49.18845305 -9.18200069 52.39096445 -10.6875 55.625 C-13.27736112 60.78567915 -16.59466742 65.35145076 -20 70 C-20.6703125 70.928125 -21.340625 71.85625 -22.03125 72.8125 C-29.70645889 83.26858168 -37.96548464 93.40375099 -47.37890625 102.3515625 C-49.09327604 104.01075963 -49.09327604 104.01075963 -50.58984375 106.2109375 C-51.05519531 106.80132813 -51.52054688 107.39171875 -52 108 C-52.66 108 -53.32 108 -54 108 C-54.33064453 108.83337891 -54.33064453 108.83337891 -54.66796875 109.68359375 C-56.43378176 112.75434776 -58.67904898 114.69413809 -61.3125 117.0625 C-61.8379541 117.5363916 -62.3634082 118.0102832 -62.90478516 118.49853516 C-68.82136362 123.80022268 -74.89885688 128.91307288 -81 134 C-81.54301758 134.47211914 -82.08603516 134.94423828 -82.64550781 135.43066406 C-86.78674016 139 -86.78674016 139 -89 139 C-89 139.66 -89 140.32 -89 141 C-91.21566824 142.86613769 -93.43979503 144.6331788 -95.75 146.375 C-97.01758604 147.3385715 -98.28325917 148.30466536 -99.546875 149.2734375 C-100.14951172 149.73331055 -100.75214844 150.19318359 -101.37304688 150.66699219 C-103.18503833 152.08628807 -103.18503833 152.08628807 -105.203125 154.4140625 C-105.79609375 154.93742188 -106.3890625 155.46078125 -107 156 C-109.25 155.75 -109.25 155.75 -111 155 C-110.14019531 154.33355469 -109.28039062 153.66710937 -108.39453125 152.98046875 C-101.71442652 147.78006772 -95.13100669 142.49703067 -88.69775391 136.99365234 C-85.24130555 134.03838371 -81.73379189 131.16027985 -78.1875 128.3125 C-74.17286724 125.04842902 -70.49911063 121.61324157 -66.8984375 117.90234375 C-64.98227957 115.98224311 -62.99364711 114.20610163 -60.9375 112.4375 C-55.11032666 107.40701052 -49.87685897 101.97292341 -44.86328125 96.13671875 C-43.5932574 94.68031823 -42.29759952 93.2459724 -40.98046875 91.83203125 C-21.63660778 71.02431053 1.45212504 40.93062869 1.1015625 11.1328125 C0.92386295 7.40112186 0.48007015 3.70339833 0 0 Z " fill="#FA8235" transform="translate(992,536)"/>
<path d="M0 0 C33.0796059 -0.11450926 66.15916029 -0.20258125 99.23891925 -0.25532665 C103.14658451 -0.26157999 107.05424938 -0.26805162 110.96191406 -0.2746582 C111.73984141 -0.27596976 112.51776876 -0.27728131 113.31926967 -0.2786326 C125.90613507 -0.30037377 138.49288599 -0.33978815 151.07968353 -0.38576398 C164.00028646 -0.43256457 176.92082954 -0.460303 189.84151375 -0.47044247 C197.81073206 -0.4772942 205.77962674 -0.49891407 213.7487454 -0.53958233 C219.86527357 -0.56920144 225.98155635 -0.57226505 232.09814644 -0.56553841 C234.60310544 -0.56691242 237.10807685 -0.57683774 239.61296272 -0.59602737 C243.03871715 -0.62098138 246.46309789 -0.61489512 249.8888855 -0.60127258 C250.87529459 -0.61583679 251.86170368 -0.630401 252.87800395 -0.64540654 C260.37807106 -0.56504183 267.18263234 1.34069972 272.72661674 6.65512198 C274.125 8.3125 274.125 8.3125 276 11 C275.34 11.66 274.68 12.32 274 13 C273.34 12.0925 272.68 11.185 272 10.25 C268.28505748 5.76022661 263.42364559 3.80788186 258 2 C256.5361659 1.90567259 255.06843655 1.86631686 253.6015749 1.8613348 C252.69688569 1.85586036 251.79219649 1.85038591 250.86009246 1.84474558 C249.36740326 1.84327842 249.36740326 1.84327842 247.84455872 1.84178162 C246.26037904 1.83437465 246.26037904 1.83437465 244.64419574 1.82681805 C241.08807548 1.81140036 237.53197335 1.80307086 233.97583008 1.79467773 C231.43354634 1.78510257 228.89126421 1.77509271 226.34898376 1.76467896 C220.86674853 1.74320456 215.38451633 1.72476787 209.90226173 1.70907402 C201.97580807 1.68637803 194.04938115 1.65823482 186.12295016 1.62875474 C173.26337506 1.58107552 160.40378903 1.53781223 147.54418945 1.49731445 C135.05101674 1.45796121 122.55785374 1.41653539 110.06469727 1.37231445 C109.29484058 1.36959018 108.52498389 1.36686591 107.73179821 1.36405908 C103.86971961 1.35037963 100.00764115 1.33665935 96.14556277 1.32291877 C64.09706188 1.20894881 32.04854085 1.1021406 0 1 C0 0.67 0 0.34 0 0 Z " fill="#F44E56" transform="translate(502,250)"/>
<path d="M0 0 C-1.38692255 3.41151579 -2.62432509 4.6525988 -5.91015625 6.26171875 C-11.74944199 9.31972502 -17.04777462 13.0307983 -22.4375 16.8125 C-23.89639648 17.82280273 -23.89639648 17.82280273 -25.38476562 18.85351562 C-36.25182512 26.39315622 -36.25182512 26.39315622 -46.13452148 35.14379883 C-48.24339999 37.24218952 -50.44670355 38.48018068 -53 40 C-55.03627857 41.63787624 -57.02340974 43.29404313 -59 45 C-59.55816406 45.46535156 -60.11632812 45.93070312 -60.69140625 46.41015625 C-64.39005847 49.51305241 -67.81659312 52.78417499 -71.1953125 56.23046875 C-73.00069987 58.00068624 -74.87819407 59.6225418 -76.8125 61.25 C-84.86442241 68.20960735 -91.65388941 76.48948745 -98 85 C-98.99 84.67 -99.98 84.34 -101 84 C-93.92410914 75.28332285 -86.35947606 67.14329754 -78.4375 59.1875 C-77.57616455 58.31714111 -76.7148291 57.44678223 -75.82739258 56.55004883 C-69.86003119 50.60977846 -63.57178131 45.25597038 -57 40 C-55.9727178 39.13629308 -54.94933224 38.26787848 -53.93359375 37.390625 C-40.98742419 26.28811965 -26.79523113 16.72138675 -12.69775391 7.15429688 C-11.15247265 6.10366561 -9.61301568 5.04448076 -8.07421875 3.984375 C-7.26597656 3.43265625 -6.45773437 2.8809375 -5.625 2.3125 C-4.95726562 1.85488281 -4.28953125 1.39726562 -3.6015625 0.92578125 C-2 0 -2 0 0 0 Z " fill="#FA8432" transform="translate(298,462)"/>
<path d="M0 0 C2.02408755 0.09002398 4.04544287 0.24641038 6.0625 0.4375 C7.71958984 0.59025391 7.71958984 0.59025391 9.41015625 0.74609375 C10.26480469 0.82988281 11.11945313 0.91367187 12 1 C12 1.33 12 1.66 12 2 C11.0934668 2.13575439 10.18693359 2.27150879 9.25292969 2.41137695 C5.83032419 2.9267744 2.40859775 3.44742327 -1.01269531 3.97143555 C-2.48243657 4.19548929 -3.95248228 4.41755662 -5.42285156 4.63745117 C-13.51951594 5.84974164 -21.45865685 7.18919443 -29.37182617 9.34057617 C-32.25345213 10.06359259 -35.12669179 10.55019047 -38.0625 11 C-42.8638675 11.7492381 -47.41301853 12.89688332 -52.07666016 14.24462891 C-54.88612607 14.97057575 -57.62661725 15.44796927 -60.49609375 15.8671875 C-67.32945968 16.97120877 -73.90587089 18.75032254 -80.5625 20.625 C-82.85452298 21.2664101 -85.14745231 21.90459296 -87.44140625 22.5390625 C-88.93716187 22.95986084 -88.93716187 22.95986084 -90.46313477 23.38916016 C-93 24 -93 24 -96 24 C-96 23.01 -96 22.02 -96 21 C-95.25234375 20.87882812 -94.5046875 20.75765625 -93.734375 20.6328125 C-92.74953125 20.46523438 -91.7646875 20.29765625 -90.75 20.125 C-89.77546875 19.96257812 -88.8009375 19.80015625 -87.796875 19.6328125 C-85.20432961 19.046231 -83.34400097 18.19631585 -81 17 C-79.01282734 16.74359062 -77.02480535 16.48990576 -75.03125 16.2890625 C-72.73739168 16.02459841 -72.73739168 16.02459841 -69.625 14.875 C-67 14 -67 14 -65 15 C-65 14.34 -65 13.68 -65 13 C-64.39671875 12.93941406 -63.7934375 12.87882812 -63.171875 12.81640625 C-62.37265625 12.73261719 -61.5734375 12.64882813 -60.75 12.5625 C-59.96109375 12.48128906 -59.1721875 12.40007812 -58.359375 12.31640625 C-56.02307595 12.04770264 -56.02307595 12.04770264 -53.875 11.46875 C-51.54761802 10.8869045 -49.38888559 10.93364207 -47 11 C-47 10.34 -47 9.68 -47 9 C-45.7625 8.855625 -44.525 8.71125 -43.25 8.5625 C-40.96452146 8.28388159 -38.85490762 7.96181779 -36.625 7.375 C-35 7 -35 7 -33 8 C-33 7.34 -33 6.68 -33 6 C-31.98679687 5.90912109 -31.98679687 5.90912109 -30.953125 5.81640625 C-30.06109375 5.73261719 -29.1690625 5.64882813 -28.25 5.5625 C-27.36828125 5.48128906 -26.4865625 5.40007812 -25.578125 5.31640625 C-23.04018545 5.06699735 -23.04018545 5.06699735 -20.796875 4.40234375 C-19 4 -19 4 -17 5 C-17 4.34 -17 3.68 -17 3 C-13.37 3 -9.74 3 -6 3 C-6 2.34 -6 1.68 -6 1 C-4.7934375 1.0309375 -4.7934375 1.0309375 -3.5625 1.0625 C-1.06645115 1.29633621 -1.06645115 1.29633621 0 0 Z " fill="#F22E55" transform="translate(838,287)"/>
<path d="M0 0 C0.99 0.66 1.98 1.32 3 2 C-24.16704422 22.25110188 -52.79582594 40.53768436 -82 57.6875 C-83.02230713 58.28884766 -84.04461426 58.89019531 -85.09790039 59.50976562 C-86.05559326 60.06728516 -87.01328613 60.62480469 -88 61.19921875 C-89.2684375 61.93918091 -89.2684375 61.93918091 -90.5625 62.6940918 C-92.98950989 63.99437985 -95.42560159 65.02914149 -98 66 C-96.59272064 61.77816191 -94.16521141 61.15491244 -90.3671875 59.140625 C-87.64234846 57.82766626 -84.91060777 56.82094065 -82 56 C-82 55.34 -82 54.68 -82 54 C-81.195625 53.87625 -80.39125 53.7525 -79.5625 53.625 C-78.716875 53.41875 -77.87125 53.2125 -77 53 C-76.67 52.34 -76.34 51.68 -76 51 C-74.66666667 50.66666667 -73.33333333 50.33333333 -72 50 C-71.67 49.34 -71.34 48.68 -71 48 C-68 46 -68 46 -65 46 C-65 45.34 -65 44.68 -65 44 C-62.525 43.505 -62.525 43.505 -60 43 C-60 42.34 -60 41.68 -60 41 C-58.54462432 40.16151196 -57.08559627 39.32936066 -55.625 38.5 C-54.81289063 38.0359375 -54.00078125 37.571875 -53.1640625 37.09375 C-51 36 -51 36 -49 36 C-49 35.34 -49 34.68 -49 34 C-47.35546875 32.7109375 -47.35546875 32.7109375 -45.1875 31.375 C-44.47980469 30.92898438 -43.77210938 30.48296875 -43.04296875 30.0234375 C-41 29 -41 29 -38 29 C-37.505 27.515 -37.505 27.515 -37 26 C-31.77777778 23 -31.77777778 23 -29 23 C-29 22.34 -29 21.68 -29 21 C-28.01 21 -27.02 21 -26 21 C-26 20.34 -26 19.68 -26 19 C-23.91796875 17.2734375 -23.91796875 17.2734375 -21.1875 15.375 C-20.29417969 14.74335937 -19.40085937 14.11171875 -18.48046875 13.4609375 C-16 12 -16 12 -13 12 C-12.67 11.01 -12.34 10.02 -12 9 C-9.9375 8.3125 -9.9375 8.3125 -8 8 C-8 7.34 -8 6.68 -8 6 C-7.01 6 -6.02 6 -5 6 C-4.67 5.01 -4.34 4.02 -4 3 C-1.9375 1.3125 -1.9375 1.3125 0 0 Z " fill="#FA7C2F" transform="translate(947,692)"/>
<path d="M0 0 C0.91142761 -0.0033284 1.82285522 -0.0066568 2.76190186 -0.01008606 C4.67459614 -0.0151186 6.5872991 -0.01749553 8.5 -0.01733398 C11.42722808 -0.01953528 14.35408768 -0.03776994 17.28125 -0.05664062 C19.14583205 -0.05957236 21.01041588 -0.06155863 22.875 -0.0625 C23.74795715 -0.06968552 24.62091431 -0.07687103 25.52032471 -0.08427429 C26.33507263 -0.08119766 27.14982056 -0.07812103 27.98925781 -0.07495117 C28.70237122 -0.07637619 29.41548462 -0.07780121 30.15020752 -0.07926941 C32.4972313 0.20775793 34.12673211 1.00950318 36.171875 2.16796875 C34.52820616 3.81163759 32.62457757 3.31782849 30.35864258 3.34155273 C29.32858597 3.35504257 28.29852936 3.36853241 27.23725891 3.38243103 C26.10837753 3.39286942 24.97949615 3.4033078 23.81640625 3.4140625 C21.41340891 3.44708082 19.0104142 3.48029074 16.60742188 3.51367188 C12.83002166 3.56049815 9.05262496 3.60474551 5.27514648 3.64477539 C-8.07082014 3.793133 -21.31501728 4.03856821 -34.59306335 5.48521423 C-40.36172446 6.10697344 -46.02687338 6.27479155 -51.828125 6.16796875 C-47.67757462 4.01396783 -44.50233649 3.53893792 -39.828125 3.16796875 C-38.838125 3.49796875 -37.848125 3.82796875 -36.828125 4.16796875 C-36.828125 3.50796875 -36.828125 2.84796875 -36.828125 2.16796875 C-36.21066406 2.17957031 -35.59320312 2.19117188 -34.95703125 2.203125 C-27.9384551 2.27790435 -21.23080626 1.65809395 -14.29248047 0.65869141 C-9.52384736 0.0666137 -4.80042633 0.00617675 0 0 Z " fill="#F13F68" transform="translate(903.828125,280.83203125)"/>
<path d="M0 0 C0.86882812 0.10699219 1.73765625 0.21398437 2.6328125 0.32421875 C3.49648438 0.42347656 4.36015625 0.52273438 5.25 0.625 C7.7578125 1.01171875 7.7578125 1.01171875 9.57081604 1.50083923 C18.04341392 3.48002703 27.11465787 3.13578406 35.76171875 3.0390625 C37.98762877 3.02643681 40.2135403 3.0140744 42.43945312 3.00195312 C45.90247439 2.97699308 49.36541497 2.94878872 52.82836914 2.91577148 C56.2019911 2.88569849 59.57550622 2.86785499 62.94921875 2.8515625 C63.98977921 2.83810287 65.03033966 2.82464325 66.10243225 2.81077576 C67.06451096 2.807397 68.02658966 2.80401825 69.01782227 2.80053711 C69.8632106 2.79307968 70.70859894 2.78562225 71.5796051 2.77793884 C73.7578125 3.01171875 73.7578125 3.01171875 76.7578125 5.01171875 C70.57922226 5.91503459 64.56793481 6.17222353 58.328125 6.1796875 C57.33892059 6.1830159 56.34971619 6.1863443 55.33053589 6.18977356 C53.24119528 6.1948166 51.15184669 6.1971827 49.0625 6.19702148 C45.92694107 6.19918826 42.79174593 6.21731764 39.65625 6.23632812 C24.77109779 6.2789127 10.21125558 5.8534032 -4.2421875 2.01171875 C-2.2421875 0.01171875 -2.2421875 0.01171875 0 0 Z " fill="#F03661" transform="translate(309.2421875,901.98828125)"/>
<path d="M0 0 C-2.65013735 2.65013735 -4.7142714 2.75654077 -8.375 3.5 C-9.6434375 3.75910156 -10.911875 4.01820313 -12.21875 4.28515625 C-15.43274191 4.89276009 -18.64327745 5.43587274 -21.875 5.9375 C-26.77736476 6.72161479 -31.56210167 7.79705094 -36.375 9 C-37.37442627 9.24931274 -37.37442627 9.24931274 -38.39404297 9.50366211 C-41.42136322 10.27742903 -44.37342362 11.12885745 -47.328125 12.1484375 C-50.11464432 13.03653869 -51.31347269 13.03327973 -54 12 C-53.01 12 -52.02 12 -51 12 C-51 11.34 -51 10.68 -51 10 C-50.01 10 -49.02 10 -48 10 C-48 9.34 -48 8.68 -48 8 C-49.65 7.67 -51.3 7.34 -53 7 C-49.0382217 4.48524236 -44.72967535 4.25695066 -40.17578125 3.7109375 C-38.88452583 3.54871201 -38.88452583 3.54871201 -37.56718445 3.38320923 C-35.74615847 3.15620277 -33.92467396 2.93284884 -32.1027832 2.71289062 C-29.33871021 2.37817394 -26.57660597 2.02985776 -23.81445312 1.6796875 C-22.03916372 1.46011758 -20.26377579 1.24134244 -18.48828125 1.0234375 C-17.26435417 0.86879532 -17.26435417 0.86879532 -16.01570129 0.71102905 C-10.64025645 0.07157732 -5.41370919 -0.08863287 0 0 Z " fill="#26C0EF" transform="translate(876,299)"/>
<path d="M0 0 C13.53 0 27.06 0 41 0 C35.34406272 3.77062485 28.58289369 3.13434477 22 3 C22 3.66 22 4.32 22 5 C27.94 6.485 27.94 6.485 34 8 C34 8.66 34 9.32 34 10 C36.31 10.66 38.62 11.32 41 12 C41 12.66 41 13.32 41 14 C41.66 14 42.32 14 43 14 C43 14.66 43 15.32 43 16 C40.42336585 15.01577218 37.95929552 13.97878511 35.51171875 12.703125 C26.97588025 8.31124129 18.29360874 6.12026178 8.96362305 4.00488281 C7.94953369 3.77124023 6.93544434 3.53759766 5.890625 3.296875 C4.97313477 3.09416992 4.05564453 2.89146484 3.11035156 2.68261719 C2.41393555 2.45735352 1.71751953 2.23208984 1 2 C0.67 1.34 0.34 0.68 0 0 Z " fill="#FC8941" transform="translate(932,501)"/>
<path d="M0 0 C1.32 0 2.64 0 4 0 C4 52.14 4 104.28 4 158 C3.67 158 3.34 158 3 158 C2.67 106.52 2.34 55.04 2 2 C1.01 2 0.02 2 -1 2 C-0.67 1.34 -0.34 0.68 0 0 Z " fill="#21C6E9" transform="translate(419,490)"/>
<path d="M0 0 C-2.28567662 2.28567662 -3.4701264 2.55610204 -6.55859375 3.33203125 C-7.95839478 3.68986694 -7.95839478 3.68986694 -9.38647461 4.05493164 C-10.39331299 4.3049292 -11.40015137 4.55492676 -12.4375 4.8125 C-14.55219767 5.34850745 -16.66677956 5.88497185 -18.78125 6.421875 C-20.36486328 6.82116211 -20.36486328 6.82116211 -21.98046875 7.22851562 C-24.62947655 7.90533198 -27.26921571 8.60634107 -29.90625 9.328125 C-38.82033376 11.76460316 -47.77132995 13.89649497 -56.8125 15.8125 C-57.83335693 16.03172119 -58.85421387 16.25094238 -59.90600586 16.47680664 C-64.6718702 17.46258701 -69.10283645 18.29100293 -74 18 C-73.67 17.34 -73.34 16.68 -73 16 C-70.67750658 15.59802999 -68.34114367 15.27313343 -66 15 C-62.67463206 14.4749419 -59.66683029 13.55059381 -56.5 12.4375 C-53.17835432 11.29343901 -50.53978244 10.78546773 -47 11 C-46.34 10.67 -45.68 10.34 -45 10 C-44.34 10.33 -43.68 10.66 -43 11 C-43 10.34 -43 9.68 -43 9 C-42.34515625 8.89042969 -41.6903125 8.78085937 -41.015625 8.66796875 C-32.50600749 7.189603 -24.13456693 5.28613258 -15.875 2.75 C-13 2 -13 2 -11 3 C-11 2.34 -11 1.68 -11 1 C-3.375 -1.125 -3.375 -1.125 0 0 Z " fill="#F23155" transform="translate(555,877)"/>
<path d="M0 0 C6.35500305 -0.25037092 11.8997015 0.60910237 18.0625 2.125 C18.98281006 2.34945801 19.90312012 2.57391602 20.85131836 2.80517578 C37.08170957 6.91610262 52.70231541 13.20703362 64 26 C63.67 26.66 63.34 27.32 63 28 C60.52858944 26.07779179 58.18172619 24.18740514 56 21.9375 C52.7905911 18.82838512 48.99921328 16.92554713 45 15 C45 14.34 45 13.68 45 13 C44.21625 12.9175 43.4325 12.835 42.625 12.75 C39.46526879 12.09626251 36.95609426 11.23245017 34 10 C30.29784381 8.46158532 26.98887805 7.53185041 23 7 C21.783125 6.649375 20.56625 6.29875 19.3125 5.9375 C16.09266528 4.86383877 16.09266528 4.86383877 13 5 C13 4.34 13 3.68 13 3 C11.02 3.33 9.04 3.66 7 4 C6.67 3.01 6.34 2.02 6 1 C4.02 1 2.04 1 0 1 C0 0.67 0 0.34 0 0 Z " fill="#FB8B3F" transform="translate(983,503)"/>
<path d="M0 0 C4.996025 0.62158942 9.19015627 2.13214192 13.8125 4 C19.64913241 6.28924209 24.70942819 7.58062855 31 8 C31.85658203 8.46986328 31.85658203 8.46986328 32.73046875 8.94921875 C36.04451499 10.48360505 39.47042385 10.69718408 43.0625 11.0625 C43.82328857 11.14556396 44.58407715 11.22862793 45.36791992 11.31420898 C52.32320813 12.06376161 59.28404952 12.75997449 66.265625 13.2109375 C67.35359375 13.28570313 68.4415625 13.36046875 69.5625 13.4375 C70.55378906 13.49808594 71.54507813 13.55867187 72.56640625 13.62109375 C75 14 75 14 77 16 C51.1262561 17.34798087 23.16450478 13.00728918 0 1 C0 0.67 0 0.34 0 0 Z " fill="#FA8D3D" transform="translate(197,636)"/>
<path d="M0 0 C7.92 0.66 15.84 1.32 24 2 C22.02 2.99 22.02 2.99 20 4 C19.19471111 6.05000871 19.19471111 6.05000871 19 8 C20.299375 8.12375 21.59875 8.2475 22.9375 8.375 C27.09566164 8.82897651 31.08922177 9.61591426 35.15234375 10.59765625 C37.01054126 11.07092423 37.01054126 11.07092423 39 11 C39 11.66 39 12.32 39 13 C32.69854305 13.30212465 27.71602508 12.3541579 21.75 10.375 C20.92459717 10.10864746 20.09919434 9.84229492 19.2487793 9.56787109 C12.48277645 7.31451691 6.22257304 4.50252614 0 1 C0 0.67 0 0.34 0 0 Z " fill="#F44B71" transform="translate(265,890)"/>
<path d="M0 0 C6.2320748 -0.17242895 11.69870816 0.30027376 17.75 1.75 C18.91680298 2.02179077 18.91680298 2.02179077 20.10717773 2.29907227 C30.36634551 4.73801237 40.00673085 7.32982514 49 13 C49 13.33 49 13.66 49 14 C46.39491364 13.88608368 43.79154454 13.75934452 41.1875 13.625 C40.44951172 13.5940625 39.71152344 13.563125 38.95117188 13.53125 C35.18106885 13.32653852 33.20349259 13.13566173 30 11 C30.99 11 31.98 11 33 11 C33 10.01 33 9.02 33 8 C32.33613281 7.87882812 31.67226563 7.75765625 30.98828125 7.6328125 C29.66376953 7.38144531 29.66376953 7.38144531 28.3125 7.125 C27.44238281 6.96257812 26.57226562 6.80015625 25.67578125 6.6328125 C23 6 23 6 20.5390625 4.99609375 C17.70799016 3.8854423 15.06603363 3.39750065 12.0625 2.9375 C11.06347656 2.78152344 10.06445312 2.62554687 9.03515625 2.46484375 C8.03355469 2.31144531 7.03195312 2.15804688 6 2 C3.9995642 1.66929212 1.9994334 1.33671531 0 1 C0 0.67 0 0.34 0 0 Z " fill="#F34771" transform="translate(911,272)"/>
<path d="M0 0 C-0.969375 0.2475 -1.93875 0.495 -2.9375 0.75 C-3.948125 1.1625 -4.95875 1.575 -6 2 C-6.73595202 4.02554603 -6.73595202 4.02554603 -7 6 C-11.14537705 6.33917131 -15.29136218 6.67026953 -19.4375 7 C-20.60216797 7.09539063 -21.76683594 7.19078125 -22.96679688 7.2890625 C-29.33551102 7.79138362 -35.61175303 8.1093176 -42 8 C-38.9949125 5.99660833 -37.56531923 5.58430173 -34.09765625 5.03515625 C-33.12997314 4.87619873 -32.16229004 4.71724121 -31.1652832 4.5534668 C-30.14136475 4.39144775 -29.11744629 4.22942871 -28.0625 4.0625 C-20.64930693 2.84642125 -13.41771192 1.54766004 -6.20703125 -0.58203125 C-3.78833025 -1.04008613 -2.31181908 -0.78123541 0 0 Z " fill="#2DB1EC" transform="translate(403,868)"/>
<path d="M0 0 C5.51350585 -0.02490465 11.02697822 -0.04295608 16.54052734 -0.05493164 C18.41227795 -0.05992942 20.28402471 -0.06672988 22.15576172 -0.07543945 C24.86166335 -0.08770621 27.56751292 -0.093274 30.2734375 -0.09765625 C31.09677582 -0.10281754 31.92011414 -0.10797882 32.7684021 -0.11329651 C38.56511673 -0.11384375 44.24346122 0.32839588 50 1 C50 1.66 50 2.32 50 3 C45.45085022 3.02517837 40.90174312 3.04307982 36.35253906 3.05493164 C34.81281831 3.05988508 33.27310206 3.06664968 31.73339844 3.07543945 C21.11178583 3.13444841 10.59230695 2.80001501 0 2 C0 1.34 0 0.68 0 0 Z " fill="#F23C66" transform="translate(860,270)"/>
<path d="M0 0 C0.66 0 1.32 0 2 0 C0.83383247 3.49850259 0.19535824 3.79032698 -2.84765625 5.64453125 C-4.08032227 6.40286255 -4.08032227 6.40286255 -5.33789062 7.17651367 C-6.23701172 7.71638916 -7.13613281 8.25626465 -8.0625 8.8125 C-8.98611328 9.37493408 -9.90972656 9.93736816 -10.86132812 10.5168457 C-18.20446755 14.96773491 -25.59517274 19.34016444 -33 23.6875 C-34.019729 24.28731689 -35.03945801 24.88713379 -36.09008789 25.50512695 C-37.05035889 26.06417725 -38.01062988 26.62322754 -39 27.19921875 C-40.2684375 27.93918091 -40.2684375 27.93918091 -41.5625 28.6940918 C-43.98950989 29.99437985 -46.42560159 31.02914149 -49 32 C-47.59272064 27.77816191 -45.16521141 27.15491244 -41.3671875 25.140625 C-38.64234846 23.82766626 -35.91060777 22.82094065 -33 22 C-33 21.34 -33 20.68 -33 20 C-32.195625 19.87625 -31.39125 19.7525 -30.5625 19.625 C-29.716875 19.41875 -28.87125 19.2125 -28 19 C-27.67 18.34 -27.34 17.68 -27 17 C-25.66666667 16.66666667 -24.33333333 16.33333333 -23 16 C-22.67 15.34 -22.34 14.68 -22 14 C-19 12 -19 12 -16 12 C-16 11.34 -16 10.68 -16 10 C-14.35 9.67 -12.7 9.34 -11 9 C-11 8.34 -11 7.68 -11 7 C-9.54462432 6.16151196 -8.08559627 5.32936066 -6.625 4.5 C-5.40683594 3.80390625 -5.40683594 3.80390625 -4.1640625 3.09375 C-2 2 -2 2 0 2 C0 1.34 0 0.68 0 0 Z " fill="#F97238" transform="translate(898,726)"/>
<path d="M0 0 C1.32 0.33 2.64 0.66 4 1 C3.15179688 1.59425781 2.30359375 2.18851562 1.4296875 2.80078125 C-11.93351468 12.21948171 -24.60029135 22.35108078 -37 33 C-37.33 32.01 -37.66 31.02 -38 30 C-36.6875 28.5 -36.6875 28.5 -35 27 C-34.01 27 -33.02 27 -32 27 C-31.7525 26.360625 -31.505 25.72125 -31.25 25.0625 C-29.67012061 22.455699 -28.83219689 22.70804922 -26 22 C-24.71563266 20.0162233 -24.71563266 20.0162233 -24 18 C-23.01 18 -22.02 18 -21 18 C-20.34 16.68 -19.68 15.36 -19 14 C-18.01 14 -17.02 14 -16 14 C-15.67 13.01 -15.34 12.02 -15 11 C-14.01 11 -13.02 11 -12 11 C-11.67 10.01 -11.34 9.02 -11 8 C-8.9375 7.3125 -8.9375 7.3125 -7 7 C-7 6.34 -7 5.68 -7 5 C-6.01 5 -5.02 5 -4 5 C-4 4.34 -4 3.68 -4 3 C-2.68 2.67 -1.36 2.34 0 2 C0 1.34 0 0.68 0 0 Z " fill="#FA7931" transform="translate(334,484)"/>
<path d="M0 0 C0 0.66 0 1.32 0 2 C-2.41575607 2.50478485 -4.83244361 3.00397642 -7.25 3.5 C-7.93191406 3.64308594 -8.61382812 3.78617188 -9.31640625 3.93359375 C-12.64633121 4.61251049 -15.58332551 5 -19 5 C-15.4409147 15.80977505 -12.50276433 20.54372063 -2.265625 25.86328125 C-1.51796875 26.23839844 -0.7703125 26.61351562 0 27 C-3 28 -3 28 -4.90234375 27.328125 C-12.71599179 23.1888412 -12.71599179 23.1888412 -15 21 C-15 20.01 -15 19.02 -15 18 C-15.99 17.67 -16.98 17.34 -18 17 C-18.984375 14.8203125 -18.984375 14.8203125 -19.75 12.125 C-20.14445312 10.79855469 -20.14445312 10.79855469 -20.546875 9.4453125 C-21 7 -21 7 -20 4 C-17.625 2.75 -17.625 2.75 -15 2 C-14.01 2.33 -13.02 2.66 -12 3 C-12 2.34 -12 1.68 -12 1 C-10.68 1.33 -9.36 1.66 -8 2 C-8 1.34 -8 0.68 -8 0 C-4.94736336 -0.98120464 -3.05263664 -0.98120464 0 0 Z " fill="#F32F59" transform="translate(479,895)"/>
<path d="M0 0 C1.67542976 0.28604898 3.34385343 0.61781233 5 1 C1.64762152 3.23491899 -1.62744699 4.21378544 -5.44921875 5.3125 C-6.18066605 5.52688721 -6.91211334 5.74127441 -7.66572571 5.9621582 C-9.21419366 6.41500144 -10.76338371 6.86538176 -12.31323242 7.31347656 C-14.66283837 7.99286905 -17.01028856 8.67930695 -19.35742188 9.3671875 C-20.86706564 9.80770949 -22.37682769 10.24782637 -23.88671875 10.6875 C-24.5797258 10.88964111 -25.27273285 11.09178223 -25.98674011 11.30004883 C-30.63379479 12.64200929 -35.30183524 13.84934862 -40 15 C-39.67 14.01 -39.34 13.02 -39 12 C-38.01 12 -37.02 12 -36 12 C-36 11.34 -36 10.68 -36 10 C-35.02546875 9.88527344 -34.0509375 9.77054687 -33.046875 9.65234375 C-28.6569274 9.0234716 -24.49189604 7.83210763 -20.25 6.5625 C-19.49589844 6.34529297 -18.74179687 6.12808594 -17.96484375 5.90429688 C-14.59674674 4.90822556 -11.94194908 3.96129939 -9 2 C-6.9921875 1.62109375 -6.9921875 1.62109375 -4.875 1.4375 C-1.22536034 1.43313101 -1.22536034 1.43313101 0 0 Z " fill="#F33C58" transform="translate(707,318)"/>
<path d="M0 0 C-2.70689979 1.80459986 -4.12546429 2.42633807 -7.17578125 3.1484375 C-7.99763916 3.34735596 -8.81949707 3.54627441 -9.66625977 3.7512207 C-10.53951904 3.95706787 -11.41277832 4.16291504 -12.3125 4.375 C-19.72396769 6.16577555 -27.04496786 8.1038964 -34.34765625 10.30078125 C-37 11 -37 11 -40 11 C-40 10.01 -40 9.02 -40 8 C-39.25234375 7.87882812 -38.5046875 7.75765625 -37.734375 7.6328125 C-36.74953125 7.46523438 -35.7646875 7.29765625 -34.75 7.125 C-33.28820312 6.88136719 -33.28820312 6.88136719 -31.796875 6.6328125 C-29.20432961 6.046231 -27.34400097 5.19631585 -25 4 C-23.01282734 3.74359062 -21.02480535 3.48990576 -19.03125 3.2890625 C-16.73739168 3.02459841 -16.73739168 3.02459841 -13.625 1.875 C-11 1 -11 1 -9 2 C-9 1.34 -9 0.68 -9 0 C-3.375 -1.125 -3.375 -1.125 0 0 Z " fill="#F32750" transform="translate(782,300)"/>
<path d="M0 0 C0.97461174 2.58124443 1.13732128 3.6645189 0.07421875 6.26171875 C-0.61220703 7.46248047 -0.61220703 7.46248047 -1.3125 8.6875 C-3.83640872 13.42070278 -5.06174905 17.75803275 -6 23 C-6.32288412 24.33590222 -6.65498972 25.66964035 -7 27 C-8.37754354 32.51017414 -8.82029085 38.53912744 -7 44 C-7.99 44.495 -7.99 44.495 -9 45 C-12.60785147 37.78429706 -10.25769977 24.42038172 -8.1328125 17.00390625 C-5.90648889 11.1003102 -2.99402571 5.54509967 0 0 Z " fill="#FA8C36" transform="translate(185,565)"/>
<path d="M0 0 C0.88558594 -0.01756348 1.77117188 -0.03512695 2.68359375 -0.05322266 C3.92882812 -0.05201416 3.92882812 -0.05201416 5.19921875 -0.05078125 C5.94389404 -0.05376221 6.68856934 -0.05674316 7.45581055 -0.05981445 C9.3125 0.3125 9.3125 0.3125 11.3125 3.3125 C10.39210938 3.30089844 9.47171875 3.28929687 8.5234375 3.27734375 C0.81951103 3.22242778 -6.74789248 3.46904194 -14.43359375 4.08984375 C-18.85713479 4.39253503 -23.25642652 4.40438862 -27.6875 4.3125 C-19.52687306 -0.26822927 -9.12385676 0.09966964 0 0 Z " fill="#F33B65" transform="translate(844.6875,270.6875)"/>
<path d="M0 0 C5.79826198 -0.12445087 11.59573097 -0.21473829 17.39501953 -0.2746582 C19.36390747 -0.29966047 21.33270393 -0.333674 23.30126953 -0.37719727 C44.80494711 -0.8404037 44.80494711 -0.8404037 52 5 C53.95285917 6.91891608 55.42389163 8.74091133 57 11 C56.34 11.66 55.68 12.32 55 13 C54.34 12.0925 53.68 11.185 53 10.25 C49.28505748 5.76022661 44.42364559 3.80788186 39 2 C36.05282827 1.84565842 33.12501135 1.7424397 30.17578125 1.68359375 C29.31438034 1.66281265 28.45297943 1.64203156 27.56547546 1.62062073 C24.81456456 1.55525091 22.06355844 1.49629868 19.3125 1.4375 C17.44725579 1.39430283 15.5820212 1.35068815 13.71679688 1.30664062 C9.14462876 1.19958237 4.5723649 1.09827946 0 1 C0 0.67 0 0.34 0 0 Z " fill="#F13558" transform="translate(721,250)"/>
<path d="M0 0 C0.99 0.33 1.98 0.66 3 1 C-18.64779295 19.63623419 -18.64779295 19.63623419 -28 25 C-27.62005832 22.24542282 -27.1926367 21.17979426 -25.125 19.25 C-23 18 -23 18 -20 18 C-19.7525 17.401875 -19.505 16.80375 -19.25 16.1875 C-17.80807503 13.66413131 -16.47450374 12.49969924 -14 11 C-13.01 11 -12.02 11 -11 11 C-10.64228516 10.12794922 -10.64228516 10.12794922 -10.27734375 9.23828125 C-8.73611367 6.53759369 -7.0088379 5.09556322 -4.5625 3.1875 C-3.78003906 2.56230469 -2.99757813 1.93710937 -2.19140625 1.29296875 C-1.10666016 0.65294922 -1.10666016 0.65294922 0 0 Z " fill="#FC8530" transform="translate(978,668)"/>
<path d="M0 0 C0.79921875 0.00902344 1.5984375 0.01804687 2.421875 0.02734375 C3.02515625 0.03894531 3.6284375 0.05054688 4.25 0.0625 C4.25 0.7225 4.25 1.3825 4.25 2.0625 C-7.70978923 4.16464725 -19.63505519 4.65768114 -31.75 5.0625 C-31.75 4.0725 -31.75 3.0825 -31.75 2.0625 C-30.92757813 2.07410156 -30.10515625 2.08570313 -29.2578125 2.09765625 C-17.92005903 2.31743379 -17.92005903 2.31743379 -6.76953125 0.53125 C-4.45359289 -0.00629856 -2.37444608 -0.03491832 0 0 Z " fill="#EF3562" transform="translate(419.75,901.9375)"/>
<path d="M0 0 C2.02408755 0.09002398 4.04544287 0.24641038 6.0625 0.4375 C7.71958984 0.59025391 7.71958984 0.59025391 9.41015625 0.74609375 C10.26480469 0.82988281 11.11945312 0.91367187 12 1 C12 1.33 12 1.66 12 2 C7.59045417 2.72011346 3.17966076 3.43186888 -1.23242188 4.13623047 C-2.73017874 4.3765037 -4.22758481 4.61897513 -5.72460938 4.86376953 C-7.88841515 5.21719114 -10.05339959 5.56243464 -12.21875 5.90625 C-13.51748047 6.11572266 -14.81621094 6.32519531 -16.15429688 6.54101562 C-20.17527153 7.02091864 -23.95683482 7.0786608 -28 7 C-28 6.67 -28 6.34 -28 6 C-26.5437328 5.63743142 -25.08488815 5.28520207 -23.625 4.9375 C-22.40683594 4.64166016 -22.40683594 4.64166016 -21.1640625 4.33984375 C-19 4 -19 4 -17 5 C-17 4.34 -17 3.68 -17 3 C-13.37 3 -9.74 3 -6 3 C-6 2.34 -6 1.68 -6 1 C-4.7934375 1.0309375 -4.7934375 1.0309375 -3.5625 1.0625 C-1.06645115 1.29633621 -1.06645115 1.29633621 0 0 Z " fill="#F23862" transform="translate(838,287)"/>
<path d="M0 0 C19.8 0.495 19.8 0.495 40 1 C39.67 1.66 39.34 2.32 39 3 C34.08871933 3.04949353 29.17758434 3.08576382 24.26611328 3.10986328 C22.59584015 3.1199115 20.92558458 3.13355236 19.25537109 3.15087891 C16.85249496 3.17517926 14.44985173 3.18649487 12.046875 3.1953125 C11.30193787 3.20563507 10.55700073 3.21595764 9.78948975 3.22659302 C6.03072358 3.22740368 3.18826289 3.10367118 0 1 C0 0.67 0 0.34 0 0 Z " fill="#F12A5A" transform="translate(289,893)"/>
<path d="M0 0 C11.66011365 1.17334477 22.41519703 8.16533108 30 17 C30 17.99 30 18.98 30 20 C27.52858944 18.07779179 25.18172619 16.18740514 23 13.9375 C19.7905911 10.82838512 15.99921328 8.92554713 12 7 C12 6.34 12 5.68 12 5 C10.700625 4.814375 10.700625 4.814375 9.375 4.625 C6.10486147 4.01941879 3.12743101 3.11693965 0 2 C0 1.34 0 0.68 0 0 Z " fill="#FB812F" transform="translate(1016,511)"/>
<path d="M0 0 C0.33 0.66 0.66 1.32 1 2 C1.66 2.33 2.32 2.66 3 3 C-0.518876 3.98629363 -4.0404142 4.96273655 -7.5625 5.9375 C-8.55314453 6.21529297 -9.54378906 6.49308594 -10.56445312 6.77929688 C-15.70788474 8.19758533 -20.69445179 9.41214823 -26 10 C-26 9.34 -26 8.68 -26 8 C-24.54494642 7.47007308 -23.08581873 6.9513211 -21.625 6.4375 C-20.81289063 6.14746094 -20.00078125 5.85742188 -19.1640625 5.55859375 C-17 5 -17 5 -15 6 C-14.67 5.34 -14.34 4.68 -14 4 C-11.78515625 3.40234375 -11.78515625 3.40234375 -9.0625 2.9375 C-5.41227791 2.33194533 -5.41227791 2.33194533 -2 1 C-1.34 1.33 -0.68 1.66 0 2 C0 1.34 0 0.68 0 0 Z " fill="#F43758" transform="translate(738,309)"/>
<path d="M0 0 C3.10324707 2.50261861 3.9404473 3.68058098 4.6875 7.6875 C4.790625 8.780625 4.89375 9.87375 5 11 C5.33 11.33 5.66 11.66 6 12 C6.1875 15.4375 6.1875 15.4375 6 19 C2.99382731 22.00617269 0.17618402 21.59585316 -4 22 C-0.375 19 -0.375 19 3 19 C2.68926976 16.77058595 2.37634375 14.54147788 2.0625 12.3125 C1.88847656 11.07113281 1.71445312 9.82976562 1.53515625 8.55078125 C1.10177103 5.67525452 0.60350718 2.84355187 0 0 Z " fill="#EF254F" transform="translate(777,263)"/>
<path d="M0 0 C0.99 0.33 1.98 0.66 3 1 C0.91975578 3.10729942 -1.16402239 5.21088873 -3.25 7.3125 C-3.83652344 7.90740234 -4.42304688 8.50230469 -5.02734375 9.11523438 C-7.87852816 11.98243668 -10.65112504 14.70386543 -14 17 C-14.33 16.01 -14.66 15.02 -15 14 C-13.23807715 12.15730989 -11.46648194 10.32609243 -9.6875 8.5 C-8.93823242 7.71302734 -8.93823242 7.71302734 -8.17382812 6.91015625 C-6.83910496 5.5489154 -5.4230616 4.26860484 -4 3 C-3.01 3 -2.02 3 -1 3 C-0.67 2.01 -0.34 1.02 0 0 Z " fill="#FC893A" transform="translate(285,524)"/>
<path d="M0 0 C1.89575251 -0.02721176 3.79161979 -0.04649136 5.6875 -0.0625 C6.74324219 -0.07410156 7.79898438 -0.08570313 8.88671875 -0.09765625 C11.72410262 -0.00865425 14.2438919 0.35060162 17 1 C17 1.33 17 1.66 17 2 C13.54239094 2.34113382 10.08382414 2.67143391 6.625 3 C5.65949219 3.09539062 4.69398438 3.19078125 3.69921875 3.2890625 C-2.55559168 3.87676281 -8.718581 4.12414553 -15 4 C-10.84944962 1.84599908 -7.67421149 1.37096917 -3 1 C-2.01 1.33 -1.02 1.66 0 2 C0 1.34 0 0.68 0 0 Z " fill="#F2325D" transform="translate(867,283)"/>
<path d="M0 0 C-2.72870404 2.72870404 -5.1208197 2.88749276 -8.875 3.6875 C-10.72738281 4.09548828 -10.72738281 4.09548828 -12.6171875 4.51171875 C-15.69737496 4.95631856 -17.15053031 4.98300483 -20 4 C-22.33094534 3.6503582 -24.66404762 3.31445513 -27 3 C-27 2.67 -27 2.34 -27 2 C-24.18814406 1.66027199 -21.37571764 1.32809788 -18.5625 1 C-17.3878418 0.85691406 -17.3878418 0.85691406 -16.18945312 0.7109375 C-10.75624381 0.08488869 -5.46925737 -0.08759571 0 0 Z " fill="#4DCCF3" transform="translate(876,299)"/>
<path d="M0 0 C1.09731445 0.00676758 1.09731445 0.00676758 2.21679688 0.01367188 C3.99873419 0.02531852 5.78062863 0.04324809 7.5625 0.0625 C7.5625 0.3925 7.5625 0.7225 7.5625 1.0625 C4.18851911 1.56954109 0.81317379 2.06686536 -2.5625 2.5625 C-3.98949219 2.77712891 -3.98949219 2.77712891 -5.4453125 2.99609375 C-10.14944706 3.68211337 -14.6679257 4.25521007 -19.4375 4.0625 C-14.11346188 -0.83561507 -6.81821112 -0.08109492 0 0 Z " fill="#F34069" transform="translate(403.4375,886.9375)"/>
<path d="M0 0 C8.58 0 17.16 0 26 0 C26 0.33 26 0.66 26 1 C22.37 1 18.74 1 15 1 C15 1.66 15 2.32 15 3 C9.28728072 4.6112798 5.31329355 3.08989546 0 1 C0 0.67 0 0.34 0 0 Z " fill="#33BEF3" transform="translate(856,529)"/>
<path d="M0 0 C-2.77190292 2.77190292 -5.16752656 2.48034258 -9 3 C-10.672233 3.65257873 -12.33927151 4.31867549 -14 5 C-18.03161996 5.92391291 -20.99461698 6.06024845 -25 5 C-17.56128966 0.8473219 -8.41750237 -0.4951472 0 0 Z " fill="#F44B60" transform="translate(698,303)"/>
<path d="M0 0 C0.99 0.33 1.98 0.66 3 1 C2.195625 1.86625 1.39125 2.7325 0.5625 3.625 C-4.30044874 9.25762408 -8.06981572 15.70297141 -12 22 C-13 19 -13 19 -12 16 C-11.34 16 -10.68 16 -10 16 C-9.690625 15.21625 -9.38125 14.4325 -9.0625 13.625 C-8 11 -8 11 -7 9 C-6.34 9 -5.68 9 -5 9 C-4.9175 8.443125 -4.835 7.88625 -4.75 7.3125 C-3.77389987 4.30285794 -2.04811186 2.37845248 0 0 Z " fill="#FB8630" transform="translate(260,550)"/>
<path d="M0 0 C5.61 0 11.22 0 17 0 C13.97978185 3.02021815 11.73555198 2.97373029 7.5 3.125 C4.75200405 3.02685729 2.59076435 2.82904459 0 2 C0 1.34 0 0.68 0 0 Z " fill="#14BBF2" transform="translate(841,302)"/>
<path d="M0 0 C0.66 0.33 1.32 0.66 2 1 C-0.08024422 3.10729942 -2.16402239 5.21088873 -4.25 7.3125 C-4.83652344 7.90740234 -5.42304687 8.50230469 -6.02734375 9.11523438 C-8.87852816 11.98243668 -11.65112504 14.70386543 -15 17 C-15.66 16.67 -16.32 16.34 -17 16 C-11.39 10.72 -5.78 5.44 0 0 Z " fill="#14BAED" transform="translate(855,648)"/>
<path d="M0 0 C1.32 0 2.64 0 4 0 C4.66 0.99 5.32 1.98 6 3 C6.99 3.33 7.98 3.66 9 4 C9 4.66 9 5.32 9 6 C9.99 6.33 10.98 6.66 12 7 C12 7.66 12 8.32 12 9 C13.45833358 10.62514468 13.45833358 10.62514468 15 12 C14.67 12.99 14.34 13.98 14 15 C13.360625 13.989375 12.72125 12.97875 12.0625 11.9375 C9.23170511 7.92038933 5.74120699 5.25542956 1.79296875 2.3828125 C1.20128906 1.92648437 0.60960937 1.47015625 0 1 C0 0.67 0 0.34 0 0 Z " fill="#FB8838" transform="translate(975,517)"/>
<path d="M0 0 C1.23556641 0.01740234 1.23556641 0.01740234 2.49609375 0.03515625 C3.32238281 0.04417969 4.14867187 0.05320312 5 0.0625 C5.63808594 0.07410156 6.27617187 0.08570313 6.93359375 0.09765625 C6.93359375 0.75765625 6.93359375 1.41765625 6.93359375 2.09765625 C-0.08446482 3.19852818 -6.97206392 3.19498717 -14.06640625 3.09765625 C-10.96274897 1.02855139 -10.4183522 0.87478051 -6.94140625 1.03515625 C-5.02328125 1.06609375 -5.02328125 1.06609375 -3.06640625 1.09765625 C-2.06640625 0.09765625 -2.06640625 0.09765625 0 0 Z " fill="#F02251" transform="translate(417.06640625,901.90234375)"/>
<path d="M0 0 C5.51095609 0.52485296 10.77099884 1.29740184 16.15234375 2.59765625 C18.01054126 3.07092423 18.01054126 3.07092423 20 3 C20 3.66 20 4.32 20 5 C12.66186666 5.5644718 6.83911885 3.55327104 0 1 C0 0.67 0 0.34 0 0 Z " fill="#F0335D" transform="translate(284,898)"/>
<path d="M0 0 C3.19091284 3.19091284 3.39543404 3.57021161 3.6875 7.75 C3.75195312 8.62914062 3.81640625 9.50828125 3.8828125 10.4140625 C4.02807891 13.61960795 4.06974044 16.79193992 4 20 C3.34 20.33 2.68 20.66 2 21 C1.34 14.07 0.68 7.14 0 0 Z " fill="#FB7B1D" transform="translate(992,536)"/>
<path d="M0 0 C0 0.66 0 1.32 0 2 C-3.78187881 3.83691257 -5.94568308 4.15837626 -10 3 C-10.33 3.99 -10.66 4.98 -11 6 C-12.65 5.67 -14.3 5.34 -16 5 C-11.1356474 1.75709826 -5.95319301 -0.55811184 0 0 Z " fill="#F54D4A" transform="translate(537,351)"/>
<path d="M0 0 C0 0.66 0 1.32 0 2 C-2.99480917 2.8723412 -5.63575911 3.10829766 -8.75 3.0625 C-9.54921875 3.05347656 -10.3484375 3.04445313 -11.171875 3.03515625 C-11.77515625 3.02355469 -12.3784375 3.01195312 -13 3 C-8.29860048 -2.02563397 -6.39899614 -2.13299871 0 0 Z " fill="#07A0E3" transform="translate(406,870)"/>
<path d="M0 0 C0.33 0.99 0.66 1.98 1 3 C-0.29296875 5.33984375 -0.29296875 5.33984375 -2.1875 7.9375 C-2.79980469 8.79214844 -3.41210938 9.64679687 -4.04296875 10.52734375 C-5.89556198 12.86804538 -7.84392534 14.9395384 -10 17 C-8.68018255 12.31812124 -6.80204328 8.99625079 -3.875 5.125 C-3.15054688 4.15820312 -2.42609375 3.19140625 -1.6796875 2.1953125 C-1.12539062 1.47085938 -0.57109375 0.74640625 0 0 Z " fill="#FB862E" transform="translate(196,548)"/>
<path d="M0 0 C-3.20010388 1.8133922 -6.13283843 2.52213974 -9.75 3.125 C-10.73484375 3.29257812 -11.7196875 3.46015625 -12.734375 3.6328125 C-13.48203125 3.75398438 -14.2296875 3.87515625 -15 4 C-15 3.01 -15 2.02 -15 1 C-9.69276568 -0.42705634 -5.46108889 -1.4002792 0 0 Z " fill="#F53A5F" transform="translate(757,307)"/>
<path d="M0 0 C-6.73010397 2.80420999 -13.80051665 4.94048575 -21 3 C-18.25244513 2.30111323 -15.50268803 1.6156012 -12.75 0.9375 C-11.97269531 0.73833984 -11.19539062 0.53917969 -10.39453125 0.33398438 C-9.64042969 0.15029297 -8.88632812 -0.03339844 -8.109375 -0.22265625 C-7.07248535 -0.48187866 -7.07248535 -0.48187866 -6.01464844 -0.74633789 C-3.74929191 -1.03156637 -2.1631688 -0.68076195 0 0 Z " fill="#4DCDF1" transform="translate(780,315)"/>
<path d="M0 0 C-5.78217394 3.05498079 -9.5589964 4.64451156 -16 3 C-13.2403139 1.16020927 -11.70258118 0.51676779 -8.5625 -0.1875 C-7.41974609 -0.45626953 -7.41974609 -0.45626953 -6.25390625 -0.73046875 C-3.87041504 -1.0154963 -2.26895796 -0.72875415 0 0 Z " fill="#F35C79" transform="translate(775,284)"/>
<path d="M0 0 C2.45993028 0.2813059 4.91740248 0.57452731 7.375 0.875 C8.42300781 0.99294922 8.42300781 0.99294922 9.4921875 1.11328125 C14.7734375 1.7734375 14.7734375 1.7734375 17 4 C11.39 3.67 5.78 3.34 0 3 C0 2.01 0 1.02 0 0 Z " fill="#FC894B" transform="translate(286,648)"/>
<path d="M0 0 C7.55137932 -0.30071865 14.58856436 0.57374434 22 2 C22 2.33 22 2.66 22 3 C14.31604457 3.2137731 7.43659188 3.01670288 0 1 C0 0.67 0 0.34 0 0 Z " fill="#FB802C" transform="translate(232,647)"/>
<path d="M0 0 C1.32 0 2.64 0 4 0 C4 0.66 4 1.32 4 2 C6.31 2.66 8.62 3.32 11 4 C11 4.66 11 5.32 11 6 C11.66 6 12.32 6 13 6 C13 6.66 13 7.32 13 8 C8.25981099 6.16508812 3.63586749 4.08058541 -1 2 C-0.67 1.34 -0.34 0.68 0 0 Z " fill="#FB883B" transform="translate(962,509)"/>
<path d="M0 0 C0 0.66 0 1.32 0 2 C-8.03501094 6.07877462 -8.03501094 6.07877462 -12.0625 5.75 C-12.701875 5.5025 -13.34125 5.255 -14 5 C-11.35493484 3.23662322 -9.40786033 2.3439149 -6.4375 1.375 C-5.65246094 1.11460937 -4.86742187 0.85421875 -4.05859375 0.5859375 C-2 0 -2 0 0 0 Z " fill="#1EBEF0" transform="translate(674,343)"/>
<path d="M0 0 C-1.90354807 2.50828536 -3.00579726 3.00135005 -6.13671875 3.73046875 C-7.30847656 3.88128906 -8.48023438 4.03210938 -9.6875 4.1875 C-10.86699219 4.34605469 -12.04648437 4.50460937 -13.26171875 4.66796875 C-14.16535156 4.77753906 -15.06898438 4.88710938 -16 5 C-15 3 -15 3 -13.14453125 2.1484375 C-8.62151874 0.6483429 -4.83255247 -0.37173481 0 0 Z " fill="#F4414C" transform="translate(611,327)"/>
<path d="M0 0 C2.31 0.33 4.62 0.66 7 1 C7.33 2.32 7.66 3.64 8 5 C5.03 5 2.06 5 -1 5 C-0.01 4.67 0.98 4.34 2 4 C2 3.01 2 2.02 2 1 C1.34 0.67 0.68 0.34 0 0 Z " fill="#F22356" transform="translate(942,279)"/>
<path d="M0 0 C4.52698636 1.39910413 6.75155982 3.5615174 9.8125 7.125 C10.99779297 8.49011719 10.99779297 8.49011719 12.20703125 9.8828125 C12.79871094 10.58148438 13.39039063 11.28015625 14 12 C13.67 12.99 13.34 13.98 13 15 C12.39671875 14.25234375 11.7934375 13.5046875 11.171875 12.734375 C10.37265625 11.74953125 9.5734375 10.7646875 8.75 9.75 C7.96109375 8.77546875 7.1721875 7.8009375 6.359375 6.796875 C4.33534195 4.39752456 2.25877651 2.17588563 0 0 Z " fill="#F53761" transform="translate(790,227)"/>
<path d="M0 0 C0.66 0.66 1.32 1.32 2 2 C-0.24561282 2.86762314 -2.49526255 3.7192103 -4.75 4.5625 C-5.38421875 4.80935547 -6.0184375 5.05621094 -6.671875 5.31054688 C-10.11009179 6.58197079 -12.52168882 7.46686355 -16 6 C-10.71169451 3.84705349 -5.44876003 1.72066106 0 0 Z " fill="#F63F4D" transform="translate(618,346)"/>
<path d="M0 0 C0 0.99 0 1.98 0 3 C-4.62197306 5.21854707 -7.76824163 6.38281159 -13 6 C-10.65890118 4.43926745 -8.43666597 3.13626133 -5.9375 1.875 C-5.24527344 1.52179687 -4.55304687 1.16859375 -3.83984375 0.8046875 C-2 0 -2 0 0 0 Z " fill="#F85C58" transform="translate(719,788)"/>
<path d="M0 0 C-2.64 1.98 -5.28 3.96 -8 6 C-9.32 5.34 -10.64 4.68 -12 4 C-10.76055724 3.13058506 -9.50792941 2.27994543 -8.25 1.4375 C-7.55390625 0.96183594 -6.8578125 0.48617187 -6.140625 -0.00390625 C-4 -1 -4 -1 0 0 Z " fill="#20BBEF" transform="translate(747,733)"/>
<path d="M0 0 C0.66 0.33 1.32 0.66 2 1 C0.625 2.5 0.625 2.5 -1 4 C-1.66 4 -2.32 4 -3 4 C-3 4.66 -3 5.32 -3 6 C-5.25 8.1875 -5.25 8.1875 -8 10 C-9.32 9.67 -10.64 9.34 -12 9 C-8.04 6.03 -4.08 3.06 0 0 Z " fill="#FB7546" transform="translate(867,701)"/>
<path d="M0 0 C3.3 0 6.6 0 10 0 C6.98509443 2.00993705 4.7850073 2.72623341 1.3125 3.625 C-0.17830078 4.01558594 -0.17830078 4.01558594 -1.69921875 4.4140625 C-2.45847656 4.60742188 -3.21773437 4.80078125 -4 5 C-3.67 4.01 -3.34 3.02 -3 2 C-2.01 2 -1.02 2 0 2 C0 1.34 0 0.68 0 0 Z " fill="#F44B61" transform="translate(671,328)"/>
<path d="M0 0 C0.33 0 0.66 0 1 0 C1.33 2.64 1.66 5.28 2 8 C-2.43076923 10.09230769 -2.43076923 10.09230769 -5.3125 9.625 C-5.869375 9.41875 -6.42625 9.2125 -7 9 C-4.35261084 7.5393715 -3.10551666 7 0 7 C0 4.69 0 2.38 0 0 Z M2 0 C2.33 0 2.66 0 3 0 C3 2.31 3 4.62 3 7 C2.67 7 2.34 7 2 7 C2 4.69 2 2.38 2 0 Z " fill="#F03960" transform="translate(780,275)"/>
<path d="M0 0 C0.33 0.99 0.66 1.98 1 3 C-0.43359375 5.04296875 -0.43359375 5.04296875 -2.4375 7.1875 C-3.09621094 7.90292969 -3.75492188 8.61835937 -4.43359375 9.35546875 C-5.20896484 10.16951172 -5.20896484 10.16951172 -6 11 C-6.99 10.67 -7.98 10.34 -9 10 C-8.2575 9.278125 -7.515 8.55625 -6.75 7.8125 C-4.30709485 5.31407427 -2.1318953 2.76356798 0 0 Z " fill="#F7574D" transform="translate(773,906)"/>
<path d="M0 0 C0 0.33 0 0.66 0 1 C-1.134375 1.12375 -2.26875 1.2475 -3.4375 1.375 C-5.2009375 1.684375 -5.2009375 1.684375 -7 2 C-7.33 2.66 -7.66 3.32 -8 4 C-11.3 3.34 -14.6 2.68 -18 2 C-18 1.67 -18 1.34 -18 1 C-12.03325384 -0.32594359 -6.07416385 -0.0884587 0 0 Z " fill="#F3597E" transform="translate(359,892)"/>
<path d="M0 0 C0.66 0.33 1.32 0.66 2 1 C-1.82180842 5.4008703 -4.47371099 6.80805531 -10 8 C-6.97727468 4.74475735 -3.74281699 2.38179263 0 0 Z " fill="#F9764C" transform="translate(853,711)"/>
<path d="M0 0 C3.96 0 7.92 0 12 0 C11.67 0.66 11.34 1.32 11 2 C3.82105263 3.27368421 3.82105263 3.27368421 0 2 C0 1.34 0 0.68 0 0 Z " fill="#FB8538" transform="translate(971,502)"/>
<path d="M0 0 C0.66 0.33 1.32 0.66 2 1 C-0.84274704 4.00067743 -3.22459869 6.30757873 -7 8 C-7.66 8.66 -8.32 9.32 -9 10 C-9 9.01 -9 8.02 -9 7 C-7.03125 5.17578125 -7.03125 5.17578125 -4.5 3.3125 C-3.6646875 2.68988281 -2.829375 2.06726563 -1.96875 1.42578125 C-1.3190625 0.95527344 -0.669375 0.48476563 0 0 Z " fill="#1DBFEF" transform="translate(377,485)"/>
<path d="M0 0 C1.65 0.33 3.3 0.66 5 1 C1.59791172 4.40208828 -2.77178592 4.05433827 -7.375 4.0625 C-8.57125 4.041875 -9.7675 4.02125 -11 4 C-11 3.67 -11 3.34 -11 3 C-9.5437328 2.63743142 -8.08488815 2.28520207 -6.625 1.9375 C-5.40683594 1.64166016 -5.40683594 1.64166016 -4.1640625 1.33984375 C-2 1 -2 1 0 2 C0 1.34 0 0.68 0 0 Z " fill="#F21F4F" transform="translate(821,290)"/>
<path d="M0 0 C0.66 0.66 1.32 1.32 2 2 C-0.64 4.64 -3.28 7.28 -6 10 C-6.66 9.34 -7.32 8.68 -8 8 C-5.36 5.36 -2.72 2.72 0 0 Z " fill="#FC8F41" transform="translate(951,628)"/>
<path d="M0 0 C-1 2 -1 2 -4.25 3.125 C-7.37700635 3.85463482 -9.82622905 4.19234975 -13 4 C-4.66666667 -1.55555556 -4.66666667 -1.55555556 0 0 Z " fill="#F8604E" transform="translate(485,371)"/>
<path d="M0 0 C0.66 0 1.32 0 2 0 C2.20496094 0.62648438 2.40992188 1.25296875 2.62109375 1.8984375 C2.89050781 2.71570313 3.15992188 3.53296875 3.4375 4.375 C3.70433594 5.18710937 3.97117187 5.99921875 4.24609375 6.8359375 C4.95179729 9.01031799 4.95179729 9.01031799 6 11 C4.125 10.8125 4.125 10.8125 2 10 C0.12320013 6.62176024 -0.21849583 3.82367701 0 0 Z " fill="#F74A6D" transform="translate(459,902)"/>
<path d="M0 0 C0 0.66 0 1.32 0 2 C-8.57142857 1.14285714 -8.57142857 1.14285714 -12 -1 C-7.84708071 -2.43754898 -3.91862041 -1.95931021 0 0 Z " fill="#FB984E" transform="translate(232,646)"/>
<path d="M0 0 C0 3 0 3 -2.3125 5.5 C-3.199375 6.325 -4.08625 7.15 -5 8 C-5.598125 8.598125 -6.19625 9.19625 -6.8125 9.8125 C-7.204375 10.204375 -7.59625 10.59625 -8 11 C-8.66 10.67 -9.32 10.34 -10 10 C-6.7 6.7 -3.4 3.4 0 0 Z " fill="#FB7824" transform="translate(943,637)"/>
<path d="M0 0 C-0.33 0.99 -0.66 1.98 -1 3 C-4.4375 4.125 -4.4375 4.125 -8 5 C-8.99 5.495 -8.99 5.495 -10 6 C-10.66 5.34 -11.32 4.68 -12 4 C-10.3767313 3.3291288 -8.75132422 2.66342971 -7.125 2 C-6.22007812 1.62875 -5.31515625 1.2575 -4.3828125 0.875 C-2 0 -2 0 0 0 Z " fill="#2EC5F1" transform="translate(603,368)"/>
<path d="M0 0 C3.3 0 6.6 0 10 0 C9.67 0.66 9.34 1.32 9 2 C6.97511372 2.28926947 4.94755984 2.57272154 2.91015625 2.75390625 C0.91747967 2.90406878 0.91747967 2.90406878 -1 4 C-1.66 3.34 -2.32 2.68 -3 2 C-2.01 2 -1.02 2 0 2 C0 1.34 0 0.68 0 0 Z " fill="#F33756" transform="translate(716,296)"/>
<path d="M0 0 C3.63 0.66 7.26 1.32 11 2 C11 2.99 11 3.98 11 5 C6.62886504 4.49172849 3.61004338 3.54826592 0 1 C0 0.67 0 0.34 0 0 Z " fill="#F3305E" transform="translate(265,890)"/>
<path d="M0 0 C-0.33 0.66 -0.66 1.32 -1 2 C-3.28515625 2.6328125 -3.28515625 2.6328125 -6.0625 3.125 C-6.98160156 3.29257812 -7.90070312 3.46015625 -8.84765625 3.6328125 C-9.91306641 3.81457031 -9.91306641 3.81457031 -11 4 C-10.67 3.34 -10.34 2.68 -10 2 C-9.34 2 -8.68 2 -8 2 C-8 1.34 -8 0.68 -8 0 C-4.94736336 -0.98120464 -3.05263664 -0.98120464 0 0 Z " fill="#F23F60" transform="translate(520,886)"/>
<path d="M0 0 C0.99 0.66 1.98 1.32 3 2 C-1.455 4.97 -1.455 4.97 -6 8 C-6.66 7.34 -7.32 6.68 -8 6 C-7.01 6 -6.02 6 -5 6 C-4.67 5.01 -4.34 4.02 -4 3 C-1.9375 1.3125 -1.9375 1.3125 0 0 Z " fill="#FC8636" transform="translate(947,692)"/>
<path d="M0 0 C0.66 0.33 1.32 0.66 2 1 C-1.42388092 4.82669043 -4.00724943 6.72278474 -9 8 C-6.14723863 5.06799526 -3.34920216 2.35684596 0 0 Z " fill="#F97540" transform="translate(878,693)"/>
<path d="M0 0 C-3.21182149 1.90608098 -5.53882603 2.22266247 -9.25 2.125 C-10.14203125 2.10695313 -11.0340625 2.08890625 -11.953125 2.0703125 C-12.96632813 2.03550781 -12.96632813 2.03550781 -14 2 C-8.7868679 -0.64982856 -5.8570138 -1.19802555 0 0 Z " fill="#F3194C" transform="translate(866,285)"/>
<path d="M0 0 C0 0.99 0 1.98 0 3 C-0.66 3 -1.32 3 -2 3 C-2 3.66 -2 4.32 -2 5 C-4.64 5.33 -7.28 5.66 -10 6 C-6.87567603 3.47650757 -3.61939504 1.72743854 0 0 Z " fill="#FA6151" transform="translate(781,756)"/>
<path d="M0 0 C0.99 0.33 1.98 0.66 3 1 C0.03 3.64 -2.94 6.28 -6 9 C-6.33 8.01 -6.66 7.02 -7 6 C-2.25 2 -2.25 2 0 2 C0 1.34 0 0.68 0 0 Z " fill="#FB8932" transform="translate(989,658)"/>
<path d="M0 0 C0.33 0 0.66 0 1 0 C2.0034246 5.017123 2.08243558 8.28711947 0 13 C-0.66 13.66 -1.32 14.32 -2 15 C-1.38487182 9.99109914 -0.7282448 4.99367864 0 0 Z " fill="#FA8328" transform="translate(993,553)"/>
<path d="M0 0 C1.32 0.33 2.64 0.66 4 1 C2.57140593 2.03325986 1.13177617 3.05127634 -0.3125 4.0625 C-1.51326172 4.91521484 -1.51326172 4.91521484 -2.73828125 5.78515625 C-3.48464844 6.18605469 -4.23101562 6.58695312 -5 7 C-5.99 6.67 -6.98 6.34 -8 6 C-7.34 6 -6.68 6 -6 6 C-6 5.34 -6 4.68 -6 4 C-3 2 -3 2 0 2 C0 1.34 0 0.68 0 0 Z " fill="#FA6E34" transform="translate(359,467)"/>
<path d="M0 0 C0 0.66 0 1.32 0 2 C-1.28745036 2.38922918 -2.58019597 2.76098036 -3.875 3.125 C-4.59429687 3.33382813 -5.31359375 3.54265625 -6.0546875 3.7578125 C-6.69664062 3.83773438 -7.33859375 3.91765625 -8 4 C-8.66 3.34 -9.32 2.68 -10 2 C-6.49223216 0.39644899 -3.85645121 -0.22036864 0 0 Z M-10 4 C-8 5 -8 5 -8 5 Z " fill="#F75B51" transform="translate(515,359)"/>
<path d="M0 0 C-3.29334787 2.16420003 -6.02867481 3.67800066 -10 4 C-10.66 3.34 -11.32 2.68 -12 2 C-10.56656 1.46809459 -9.12804633 0.94984742 -7.6875 0.4375 C-6.48673828 0.00244141 -6.48673828 0.00244141 -5.26171875 -0.44140625 C-3 -1 -3 -1 0 0 Z " fill="#1BBFF2" transform="translate(691,339)"/>
<path d="M0 0 C-0.66 0 -1.32 0 -2 0 C-2.33 0.99 -2.66 1.98 -3 3 C-5.97 2.67 -8.94 2.34 -12 2 C-4.86956522 -1.56521739 -4.86956522 -1.56521739 0 0 Z " fill="#F66079" transform="translate(732,294)"/>
<path d="M0 0 C0.99 0.33 1.98 0.66 3 1 C0.69 3.31 -1.62 5.62 -4 8 C-4.33 7.01 -4.66 6.02 -5 5 C-3.35 3.35 -1.7 1.7 0 0 Z " fill="#FC852F" transform="translate(268,541)"/>
<path d="M0 0 C3.63 0.33 7.26 0.66 11 1 C11 1.33 11 1.66 11 2 C9.41913952 2.36504603 7.83516093 2.71660506 6.25 3.0625 C5.36828125 3.25972656 4.4865625 3.45695312 3.578125 3.66015625 C1.01320972 3.99825872 -0.57091639 3.81158635 -3 3 C-2.01 3 -1.02 3 0 3 C0 2.01 0 1.02 0 0 Z " fill="#F2587A" transform="translate(805,293)"/>
<path d="M0 0 C0 0.66 0 1.32 0 2 C-2.64 2.33 -5.28 2.66 -8 3 C-8 2.01 -8 1.02 -8 0 C-4.94736336 -0.98120464 -3.05263664 -0.98120464 0 0 Z " fill="#F34263" transform="translate(479,895)"/>
<path d="M0 0 C0.99 0.33 1.98 0.66 3 1 C-0.03525486 3.02350324 -1.19426202 3.32124018 -4.6875 3.625 C-5.49574219 3.69976563 -6.30398438 3.77453125 -7.13671875 3.8515625 C-7.75160156 3.90054688 -8.36648438 3.94953125 -9 4 C-8.01 3.67 -7.02 3.34 -6 3 C-6 2.34 -6 1.68 -6 1 C-4.7934375 1.0309375 -4.7934375 1.0309375 -3.5625 1.0625 C-1.06645115 1.29633621 -1.06645115 1.29633621 0 0 Z " fill="#F22A4E" transform="translate(526,883)"/>
<path d="M0 0 C2.97 0 5.94 0 9 0 C9 0.66 9 1.32 9 2 C4.545 2.495 4.545 2.495 0 3 C0 2.01 0 1.02 0 0 Z " fill="#C2EDFA" transform="translate(874,298)"/>
<path d="M0 0 C-8.38709677 3.70967742 -8.38709677 3.70967742 -11 4 C-11.66 3.34 -12.32 2.68 -13 2 C-11.5882217 1.46605821 -10.17029756 0.94834896 -8.75 0.4375 C-7.96109375 0.14746094 -7.1721875 -0.14257812 -6.359375 -0.44140625 C-3.80896548 -1.04522837 -2.44677771 -0.8473932 0 0 Z " fill="#45C8F2" transform="translate(731,327)"/>
<path d="M0 0 C-0.99 0 -1.98 0 -3 0 C-3.33 0.99 -3.66 1.98 -4 3 C-6.64 2.67 -9.28 2.34 -12 2 C-7.72170329 -0.29194467 -4.74957752 -1.52664992 0 0 Z " fill="#F5657C" transform="translate(716,298)"/>
<path d="M0 0 C3 1 3 1 4.6875 4.0625 C5.120625 5.031875 5.55375 6.00125 6 7 C5.34 7.66 4.68 8.32 4 9 C0 2.25 0 2.25 0 0 Z " fill="#1BC1F2" transform="translate(292,602)"/>
<path d="M0 0 C0.66 0.33 1.32 0.66 2 1 C1.360625 1.103125 0.72125 1.20625 0.0625 1.3125 C-0.9584375 1.6528125 -0.9584375 1.6528125 -2 2 C-2.33 2.99 -2.66 3.98 -3 5 C-4.65 4.67 -6.3 4.34 -8 4 C-5.31143836 2.20762558 -3.0466145 1.01553817 0 0 Z " fill="#F7726D" transform="translate(529,352)"/>
<path d="M0 0 C-2.62198774 2.15377564 -4.64404172 3.40072174 -8 4 C-8.33 3.01 -8.66 2.02 -9 1 C-5.92677456 0.08941469 -3.19902639 -0.08886184 0 0 Z " fill="#F23C4E" transform="translate(641,318)"/>
<path d="M0 0 C2.31 0.33 4.62 0.66 7 1 C7 1.33 7 1.66 7 2 C-0.42857143 4.42857143 -0.42857143 4.42857143 -4 3 C-3.01 3 -2.02 3 -1 3 C-0.67 2.01 -0.34 1.02 0 0 Z " fill="#F3436A" transform="translate(783,298)"/>
<path d="M0 0 C-3.08888522 2.05925681 -3.70935927 2.2390374 -7.1875 2.125 C-9.0746875 2.063125 -9.0746875 2.063125 -11 2 C-6.98764085 -0.6749061 -4.6342454 -1.48957888 0 0 Z " fill="#F6627F" transform="translate(757,288)"/>
<path d="M0 0 C0.33 0.99 0.66 1.98 1 3 C-0.32 4.32 -1.64 5.64 -3 7 C-3.99 6.67 -4.98 6.34 -6 6 C-4.02 4.02 -2.04 2.04 0 0 Z " fill="#F85E4A" transform="translate(444,233)"/>
<path d="M0 0 C0.33 0.66 0.66 1.32 1 2 C-1.45454545 7.72727273 -1.45454545 7.72727273 -4 9 C-3.46930939 5.17902761 -2.50298434 2.93828597 0 0 Z " fill="#F97F28" transform="translate(982,586)"/>
<path d="M0 0 C0 0.99 0 1.98 0 3 C-2.97 2.67 -5.94 2.34 -9 2 C-9 1.67 -9 1.34 -9 1 C-5.846632 0.29925156 -3.27275026 0 0 0 Z " fill="#36C6F2" transform="translate(759,319)"/>
<path d="M0 0 C1.32 0.33 2.64 0.66 4 1 C3.625 2.9375 3.625 2.9375 3 5 C2.01 5.495 2.01 5.495 1 6 C0.67 4.02 0.34 2.04 0 0 Z " fill="#D9F4FB" transform="translate(818,312)"/>
</svg>
